<svg width="51" height="50" viewBox="0 0 51 50" fill="none" xmlns="http://www.w3.org/2000/svg">
<path d="M23.4304 0.146715C23.6229 0.135697 23.7862 0.12442 23.7934 0.121698C23.8005 0.118846 23.8821 0.116124 24.1433 0.114569L24.1346 0.610368C24.1298 0.883091 24.1193 1.42698 24.1114 1.81908C24.1035 2.21119 24.0885 2.81483 24.0781 3.16066C24.0679 3.50649 24.0534 3.94681 24.046 4.1393C24.0386 4.33178 24.0238 4.68176 24.0132 4.91702C24.0025 5.15228 23.9822 5.55476 23.9681 5.8114C23.9539 6.06805 23.9336 6.4122 23.9227 6.57617C23.9118 6.74014 23.8912 7.0288 23.877 7.21779C23.8627 7.40678 23.8365 7.72759 23.8186 7.93071C23.8009 8.13382 23.7687 8.47213 23.7472 8.68251C23.7257 8.89288 23.6937 9.18738 23.6761 9.33709C23.6586 9.4868 23.6293 9.72297 23.6111 9.86206C23.593 10.0011 23.5579 10.2548 23.533 10.4259C23.5081 10.597 23.4614 10.8945 23.4293 11.087C23.397 11.2795 23.3505 11.5449 23.3257 11.6767C23.3011 11.8086 23.2573 12.0302 23.2284 12.1693C23.1996 12.3084 23.1557 12.5125 23.1309 12.623C23.106 12.7334 23.048 12.9741 23.0021 13.1577C22.9561 13.3412 22.8752 13.6417 22.8224 13.8252C22.7696 14.0088 22.6873 14.2785 22.6394 14.4247C22.5917 14.5709 22.5149 14.7954 22.4686 14.9237C22.4225 15.0521 22.3407 15.2679 22.287 15.4033C22.2332 15.5388 22.134 15.775 22.0663 15.9283C21.9986 16.0817 21.8804 16.3323 21.8038 16.4857C21.7271 16.639 21.6163 16.8519 21.5576 16.9588C21.4989 17.0657 21.3895 17.2554 21.3144 17.3801C21.2395 17.5049 21.1103 17.709 21.0273 17.8337C20.9444 17.9586 20.8153 18.1444 20.7406 18.2471C20.666 18.3496 20.5299 18.5275 20.4381 18.6424C20.3464 18.7573 20.2056 18.9271 20.1255 19.0198C20.0453 19.1124 19.8838 19.2904 19.7665 19.4151C19.6492 19.5399 19.4632 19.7272 19.3533 19.8315C19.2433 19.9357 19.095 20.0728 19.0237 20.1362C18.9524 20.1996 18.8241 20.31 18.7386 20.3816C18.653 20.4532 18.516 20.5641 18.434 20.6278C18.3519 20.6917 18.2121 20.7969 18.1229 20.8616C18.0339 20.9261 17.8559 21.0491 17.7276 21.1347C17.5993 21.2202 17.4126 21.3399 17.3128 21.4005C17.213 21.4612 17.0234 21.571 16.8916 21.6446C16.7598 21.7181 16.5147 21.846 16.3472 21.9289C16.1798 22.0117 15.9523 22.1195 15.8418 22.1684C15.7312 22.2174 15.5184 22.3068 15.3687 22.3672C15.219 22.4278 14.9799 22.5194 14.8373 22.5711C14.6947 22.6228 14.4877 22.6948 14.3772 22.7308C14.2666 22.767 14.0683 22.8292 13.9365 22.8692C13.8047 22.9093 13.5917 22.9705 13.4634 23.0052C13.3351 23.0401 13.1251 23.0949 12.9968 23.1271C12.8685 23.1593 12.6352 23.2147 12.4784 23.2502C12.3215 23.2856 12.0299 23.3469 11.8303 23.3863C11.6307 23.4257 11.3129 23.4843 11.1239 23.5166C10.935 23.5489 10.6668 23.5928 10.5277 23.614C10.3887 23.6353 10.103 23.6761 9.89264 23.7045C9.68229 23.7329 9.30032 23.7797 9.04369 23.8085C8.78707 23.8373 8.42545 23.8754 8.24011 23.893C8.05477 23.9108 7.76314 23.9371 7.59206 23.9515C7.42097 23.9658 7.07984 23.992 6.83384 24.0097C6.58784 24.0274 6.18553 24.0535 5.93953 24.0677C5.69353 24.082 5.30871 24.1025 5.0841 24.1132C4.85961 24.1241 4.53585 24.1388 4.36476 24.1459C4.19367 24.153 3.8817 24.1648 3.67134 24.1719C3.46099 24.1792 3.09069 24.1909 2.84832 24.1977C2.60595 24.2047 2.09567 24.2168 1.71423 24.2247C1.33291 24.2325 0.791142 24.2428 0 24.2565L0.0075174 24.0426C0.0116649 23.9249 0.0239779 23.6887 0.0351244 23.5176C0.0461413 23.3465 0.0610465 23.1307 0.0684343 23.038C0.0756925 22.9453 0.0905977 22.7733 0.101355 22.6556C0.112243 22.5379 0.135702 22.3134 0.153588 22.1566C0.171475 21.9998 0.200507 21.7635 0.218134 21.6316C0.235891 21.4998 0.271015 21.2607 0.296289 21.1002C0.321563 20.9398 0.364983 20.6832 0.39259 20.5299C0.420327 20.3765 0.469838 20.12 0.502759 19.9595C0.53568 19.7992 0.58869 19.5541 0.620704 19.4151C0.652588 19.2762 0.713246 19.0252 0.755499 18.8577C0.797752 18.6903 0.878629 18.3898 0.935269 18.1902C0.991908 17.9906 1.08588 17.6756 1.1442 17.4902C1.20253 17.3049 1.29688 17.0191 1.35378 16.8551C1.41068 16.6911 1.50996 16.417 1.57438 16.2459C1.63879 16.0748 1.73509 15.8268 1.78836 15.695C1.84163 15.5632 1.93651 15.3357 1.99924 15.1895C2.06184 15.0433 2.16462 14.8099 2.22761 14.671C2.29047 14.532 2.45988 14.1821 2.60387 13.8933C2.74787 13.6045 2.92816 13.2546 3.00437 13.1155C3.08058 12.9765 3.20138 12.7608 3.27279 12.6359C3.34408 12.5112 3.46384 12.3071 3.53888 12.1823C3.61393 12.0576 3.75118 11.8358 3.84386 11.6897C3.93666 11.5436 4.08843 11.3103 4.18123 11.1712C4.27403 11.0321 4.43436 10.7988 4.53753 10.6527C4.64057 10.5067 4.82539 10.2529 4.94814 10.0889C5.07088 9.92492 5.26646 9.67112 5.38272 9.52504C5.49898 9.37896 5.66721 9.17183 5.75639 9.06489C5.84556 8.95795 5.99733 8.77998 6.0935 8.66954C6.1898 8.55911 6.32123 8.4103 6.38564 8.33901C6.45006 8.26772 6.57565 8.13058 6.66483 8.0344C6.754 7.93822 6.96993 7.71437 7.14464 7.53705C7.31949 7.35986 7.57638 7.10606 7.71571 6.9732C7.85491 6.84033 8.05619 6.65277 8.16286 6.55621C8.26953 6.45964 8.44723 6.30176 8.55766 6.20519C8.66808 6.10876 8.86056 5.94517 8.98537 5.84187C9.11005 5.73856 9.31134 5.57524 9.43253 5.47906C9.55371 5.38288 9.76083 5.22228 9.89264 5.12221C10.0245 5.02214 10.2696 4.84249 10.437 4.72298C10.6045 4.6036 10.8961 4.40256 11.0851 4.27656C11.274 4.15044 11.5743 3.95679 11.7526 3.84609C11.9308 3.7354 12.1816 3.58348 12.3099 3.50843C12.4382 3.43351 12.616 3.33124 12.7052 3.28108C12.7942 3.23104 12.978 3.13007 13.1135 3.0567C13.2489 2.98347 13.5725 2.81768 13.8328 2.68858C14.0931 2.55935 14.4197 2.40212 14.5586 2.33912C14.6976 2.276 14.9338 2.17204 15.0835 2.10775C15.2332 2.04359 15.4869 1.93859 15.6473 1.87443C15.8077 1.81027 16.0643 1.71111 16.2176 1.6542C16.371 1.5973 16.6101 1.5111 16.749 1.46288C16.888 1.41454 17.1504 1.32782 17.3323 1.27027C17.5141 1.21259 17.8159 1.12146 18.003 1.0678C18.1902 1.01401 18.4905 0.932347 18.6705 0.886202C18.8505 0.840056 19.1261 0.772654 19.2829 0.736489C19.4397 0.700196 19.7547 0.633311 19.9828 0.587685C20.2109 0.542058 20.555 0.478414 20.7475 0.446398C20.94 0.414252 21.2461 0.367459 21.428 0.342442C21.6098 0.317425 21.916 0.279446 22.1084 0.258059C22.3009 0.236671 22.5984 0.207377 22.7694 0.192989C22.9405 0.178601 23.238 0.157732 23.4304 0.146715Z" fill="#1A1A1A"/>
<path d="M25.6656 1.83204C25.6578 1.44707 25.6474 0.902404 25.6426 0.621775L25.6338 0.111328L25.8412 0.118717C25.9553 0.122735 26.1507 0.132197 26.2754 0.139715C26.4002 0.147363 26.6217 0.162528 26.7679 0.173546C26.9141 0.184434 27.1823 0.207896 27.3641 0.225654C27.546 0.243412 27.8551 0.27828 28.0511 0.303037C28.2472 0.327795 28.5416 0.368755 28.7056 0.394031C28.8695 0.419307 29.1028 0.457416 29.224 0.478544C29.3452 0.499672 29.5639 0.540503 29.7101 0.569279C29.8563 0.598054 30.1216 0.653791 30.2998 0.692937C30.478 0.732212 30.7638 0.799356 30.9349 0.84226C31.106 0.885035 31.3626 0.952049 31.5052 0.991065C31.6477 1.03008 31.9074 1.10513 32.0819 1.15776C32.2565 1.21025 32.5103 1.28945 32.6457 1.33365C32.7812 1.37772 33.0115 1.45627 33.1577 1.50812C33.3039 1.55997 33.5284 1.64176 33.6567 1.68972C33.785 1.73768 34.0242 1.83114 34.1881 1.89711C34.3521 1.96322 34.6145 2.07275 34.7714 2.14054C34.9282 2.20833 35.179 2.3202 35.3287 2.38916C35.4784 2.45811 35.7847 2.6064 36.0091 2.71878C36.2336 2.83103 36.5341 2.98606 36.6766 3.06305C36.8192 3.14018 37.0642 3.27628 37.221 3.36559C37.3778 3.45477 37.617 3.59502 37.7524 3.6772C37.8878 3.75925 38.095 3.88757 38.2125 3.96223C38.3301 4.03702 38.5489 4.17987 38.6986 4.2798C38.8483 4.37974 39.0786 4.53723 39.2105 4.62978C39.3425 4.7222 39.5641 4.88254 39.703 4.98585C39.842 5.08916 40.0461 5.24418 40.1567 5.33025C40.2672 5.41645 40.4654 5.57433 40.5973 5.68127C40.7293 5.7882 40.9566 5.97849 41.1028 6.10409C41.249 6.22969 41.4385 6.39548 41.5241 6.4726C41.6096 6.5496 41.7962 6.72199 41.9388 6.85576C42.0814 6.9894 42.3704 7.27288 42.5812 7.48559C42.7919 7.6983 43.0427 7.95715 43.1385 8.06072C43.2343 8.16428 43.3827 8.32761 43.4683 8.42365C43.5539 8.5197 43.6943 8.67991 43.7803 8.77972C43.8664 8.87953 44.0209 9.0632 44.1238 9.18803C44.2267 9.31272 44.384 9.50819 44.4736 9.62226C44.563 9.73632 44.7238 9.94631 44.8307 10.0889C44.9376 10.2315 45.1061 10.4618 45.2051 10.6009C45.3041 10.74 45.4847 11.0025 45.6064 11.1842C45.728 11.3659 45.9185 11.6605 46.0297 11.8388C46.1409 12.017 46.3018 12.2825 46.3872 12.4285C46.4725 12.5746 46.6008 12.7993 46.6722 12.9276C46.7435 13.0559 46.871 13.2921 46.9554 13.4526C47.0398 13.6129 47.183 13.8959 47.2736 14.0812C47.3642 14.2666 47.4965 14.5466 47.5675 14.7034C47.6387 14.8602 47.7419 15.0936 47.7968 15.2219C47.8518 15.3502 47.9494 15.5864 48.0137 15.7468C48.0779 15.9072 48.1847 16.1843 48.251 16.3625C48.3172 16.5408 48.4209 16.8324 48.4813 17.0106C48.5418 17.1889 48.6324 17.4689 48.6828 17.6328C48.7332 17.7968 48.8101 18.0563 48.8538 18.2096C48.8976 18.363 48.982 18.6808 49.0415 18.9161C49.1011 19.1513 49.1879 19.5217 49.2345 19.7392C49.2811 19.9567 49.3455 20.2775 49.3777 20.4521C49.4098 20.6267 49.4534 20.8776 49.4746 21.0094C49.4957 21.1413 49.5307 21.3746 49.5524 21.5279C49.574 21.6813 49.6092 21.9583 49.6304 22.1436C49.6517 22.329 49.681 22.6148 49.6955 22.7788C49.7101 22.9427 49.7309 23.2081 49.7417 23.3685C49.7526 23.5289 49.7651 23.7944 49.7778 24.2565L49.3059 24.2476C49.0464 24.2428 48.5221 24.2323 48.1407 24.2244C47.7592 24.2167 47.1615 24.2015 46.8122 24.191C46.4629 24.1805 45.9554 24.1631 45.6846 24.1525C45.4137 24.1419 45.0666 24.1272 44.9134 24.12C44.7602 24.1128 44.4247 24.0953 44.1681 24.0812C43.9115 24.0671 43.6052 24.0494 43.4877 24.0421C43.3701 24.0348 43.1135 24.0172 42.9174 24.003C42.7214 23.989 42.418 23.9656 42.2434 23.9511C42.0688 23.9364 41.745 23.9071 41.5241 23.8859C41.3031 23.8646 40.9911 23.8326 40.8306 23.8148C40.6703 23.7969 40.4224 23.7679 40.2798 23.7502C40.1372 23.7324 39.9127 23.7032 39.7808 23.6852C39.6489 23.6673 39.4069 23.6321 39.2429 23.6072C39.079 23.5822 38.8107 23.5385 38.6467 23.51C38.4827 23.4816 38.2553 23.4406 38.1412 23.4191C38.0272 23.3975 37.8084 23.3536 37.6552 23.3215C37.502 23.2895 37.2395 23.231 37.0719 23.1917C36.9044 23.1523 36.6274 23.0831 36.4563 23.0378C36.2852 22.9924 36.0549 22.9284 35.9443 22.8954C35.8338 22.8624 35.6326 22.8 35.4972 22.7569C35.3617 22.7136 35.1226 22.6318 34.9658 22.5749C34.8089 22.518 34.5668 22.4261 34.4279 22.3705C34.2889 22.3149 34.0643 22.2201 33.9289 22.1598C33.7934 22.0996 33.5412 21.9794 33.3683 21.8928C33.1954 21.8062 32.9796 21.6937 32.8888 21.6429C32.7979 21.5921 32.6215 21.4892 32.4967 21.4143C32.372 21.3393 32.1504 21.1978 32.0042 21.0998C31.858 21.0017 31.6335 20.8428 31.5052 20.7466C31.3769 20.6504 31.1983 20.5112 31.1084 20.4373C31.0185 20.3634 30.8465 20.2157 30.7261 20.1087C30.6057 20.0019 30.3846 19.7919 30.2349 19.6421C30.085 19.4924 29.8771 19.2736 29.7728 19.1559C29.6686 19.0382 29.5141 18.8574 29.4296 18.7539C29.3451 18.6505 29.2059 18.4726 29.1203 18.3586C29.0348 18.2446 28.8771 18.0201 28.7699 17.8597C28.6626 17.6993 28.5158 17.4689 28.4438 17.3477C28.3716 17.2265 28.2645 17.0398 28.2058 16.9329C28.1471 16.8259 28.0371 16.6131 27.9611 16.4598C27.8853 16.3064 27.7716 16.0644 27.7086 15.9218C27.6456 15.7792 27.5458 15.5401 27.4867 15.3904C27.4278 15.2407 27.3416 15.0132 27.2953 14.8849C27.249 14.7565 27.1698 14.5218 27.1192 14.3631C27.0686 14.2045 26.9898 13.945 26.9443 13.7863C26.8987 13.6277 26.8231 13.3463 26.7765 13.1609C26.7298 12.9755 26.6596 12.6781 26.6204 12.4998C26.5813 12.3216 26.5258 12.0561 26.4972 11.9101C26.4685 11.764 26.422 11.5132 26.3936 11.3527C26.3653 11.1924 26.3186 10.9094 26.2897 10.724C26.2609 10.5387 26.214 10.215 26.1856 10.0046C26.1572 9.79426 26.1075 9.38596 26.0754 9.09729C26.0431 8.80863 26.0023 8.41484 25.9846 8.22235C25.9668 8.02987 25.9376 7.6887 25.9196 7.46407C25.9017 7.23944 25.8754 6.88078 25.8612 6.6669C25.8468 6.45303 25.8234 6.06805 25.8092 5.8114C25.7951 5.55476 25.7746 5.15228 25.7638 4.91702C25.7531 4.68176 25.7356 4.24714 25.7249 3.95135C25.7143 3.65555 25.6998 3.2151 25.6927 2.97271C25.6857 2.73032 25.6734 2.21702 25.6656 1.83204Z" fill="#1A1A1A"/>
<path d="M0.0364205 26.4666C0.0261813 26.2848 0.0139979 26.0486 0.00933195 25.9417L0.000777662 25.7472L0.102522 25.7501C0.158514 25.7516 0.571711 25.759 1.02081 25.7665C1.46991 25.7741 2.05899 25.7858 2.32988 25.7928C2.60076 25.7997 3.01202 25.8114 3.24363 25.8185C3.47537 25.8258 3.81949 25.8376 4.00833 25.8448C4.1973 25.8521 4.54725 25.8667 4.78599 25.8775C5.02487 25.8881 5.43016 25.9085 5.68679 25.9227C5.94341 25.937 6.32836 25.9603 6.54221 25.9746C6.75607 25.9888 7.07984 26.0123 7.26155 26.0267C7.4434 26.0409 7.78453 26.0702 8.01977 26.0916C8.25502 26.113 8.65746 26.1537 8.91408 26.182C9.17071 26.2104 9.53816 26.2542 9.73063 26.2794C9.9231 26.3046 10.2177 26.3455 10.3852 26.3703C10.5527 26.3951 10.8472 26.442 11.0397 26.4744C11.2322 26.5069 11.5063 26.5561 11.6489 26.5835C11.7914 26.611 12.0364 26.6605 12.1932 26.6936C12.3501 26.7266 12.6097 26.7848 12.77 26.8231C12.9305 26.8613 13.1841 26.9253 13.3338 26.9655C13.4835 27.0056 13.7226 27.0729 13.8652 27.1148C14.0078 27.157 14.2586 27.236 14.4225 27.2905C14.5865 27.3451 14.8344 27.432 14.9734 27.4839C15.1124 27.5356 15.3078 27.6113 15.4076 27.652C15.5074 27.6927 15.6823 27.767 15.7964 27.8171C15.9105 27.8673 16.1321 27.9706 16.2889 28.047C16.4457 28.1233 16.6732 28.2401 16.7944 28.3066C16.9156 28.3732 17.1081 28.4831 17.2221 28.5509C17.3362 28.6188 17.5286 28.7393 17.6498 28.8186C17.771 28.898 17.9548 29.0236 18.0581 29.0978C18.1615 29.1719 18.3248 29.2936 18.421 29.3683C18.5173 29.4431 18.666 29.5629 18.7515 29.6347C18.8371 29.7065 18.9858 29.8352 19.082 29.9208C19.1783 30.0064 19.3825 30.2018 19.5359 30.3551C19.6892 30.5085 19.9022 30.7324 20.009 30.8527C20.1158 30.9731 20.2634 31.1453 20.337 31.2351C20.4105 31.3251 20.5477 31.5007 20.6416 31.6254C20.7355 31.7501 20.9001 31.9834 21.0074 32.1439C21.1146 32.3043 21.2613 32.5348 21.3334 32.656C21.4054 32.7772 21.5122 32.9639 21.5708 33.0708C21.6294 33.1777 21.7292 33.3687 21.7924 33.4953C21.8558 33.6218 21.9519 33.823 22.0062 33.9425C22.0603 34.0619 22.147 34.2616 22.1988 34.3864C22.2505 34.5111 22.3291 34.7095 22.3737 34.8272C22.4183 34.9447 22.4865 35.1314 22.5254 35.2419C22.5641 35.3524 22.6388 35.5799 22.6912 35.7475C22.7436 35.9149 22.8245 36.1891 22.8712 36.3567C22.9177 36.5242 22.982 36.7663 23.0141 36.8946C23.0462 37.0229 23.0988 37.2446 23.1309 37.3872C23.1631 37.5298 23.2126 37.7601 23.241 37.8992C23.2695 38.0381 23.3163 38.2803 23.345 38.4371C23.3738 38.5939 23.4206 38.8651 23.449 39.0398C23.4774 39.2144 23.5212 39.5003 23.5462 39.675C23.5712 39.8496 23.6122 40.1559 23.637 40.3555C23.6619 40.5551 23.7 40.8817 23.7216 41.0814C23.7432 41.281 23.7752 41.5988 23.7928 41.7878C23.8105 41.9767 23.8396 42.315 23.8575 42.5396C23.8754 42.7641 23.9018 43.1229 23.9161 43.3368C23.9304 43.5506 23.9536 43.9356 23.9677 44.1923C23.9819 44.4489 24.0023 44.8542 24.0132 45.0931C24.0241 45.3319 24.039 45.6819 24.0462 45.8709C24.0535 46.0597 24.0679 46.4972 24.0782 46.843C24.0885 47.1887 24.1035 47.7925 24.1114 48.1846C24.1195 48.5767 24.1298 49.1206 24.1433 49.8891H24.0072C23.9324 49.8892 23.7983 49.8834 23.7091 49.8761C23.6201 49.869 23.4013 49.8541 23.2231 49.843C23.0449 49.8318 22.7474 49.8087 22.5621 49.7918C22.3767 49.7748 22.0968 49.7456 21.9399 49.7271C21.7831 49.7085 21.512 49.6729 21.3372 49.648C21.1627 49.6231 20.8681 49.5771 20.6827 49.5457C20.4974 49.5145 20.2232 49.4649 20.0735 49.4353C19.9238 49.4059 19.6555 49.3496 19.4773 49.3102C19.2991 49.2708 19.0163 49.2043 18.8487 49.1623C18.6813 49.1203 18.4246 49.0533 18.2784 49.0134C18.1324 48.9735 17.8582 48.8941 17.6693 48.8372C17.4804 48.7802 17.1713 48.6819 16.9823 48.6189C16.7935 48.556 16.4814 48.4463 16.2889 48.3753C16.0964 48.3044 15.7728 48.1791 15.5696 48.0971C15.3665 48.015 15.0835 47.897 14.941 47.8347C14.7984 47.7724 14.5622 47.666 14.416 47.5981C14.27 47.5303 13.9754 47.3873 13.7615 47.2804C13.5477 47.1735 13.259 47.0247 13.1199 46.9498C12.981 46.8748 12.7594 46.7524 12.6274 46.6776C12.4956 46.603 12.2943 46.4862 12.1803 46.4182C12.0662 46.3503 11.8504 46.2185 11.7007 46.1254C11.551 46.0322 11.2827 45.8589 11.1045 45.7401C10.9263 45.6213 10.6668 45.4438 10.5277 45.3455C10.3888 45.2471 10.1497 45.0729 9.99633 44.9583C9.84313 44.8437 9.604 44.6599 9.46493 44.55C9.32599 44.44 9.11018 44.2652 8.98537 44.1617C8.86069 44.0581 8.64774 43.8764 8.51229 43.7579C8.37685 43.6396 8.15522 43.4409 8.01977 43.3165C7.88433 43.1922 7.6023 42.9213 7.39298 42.7146C7.18366 42.5078 6.90033 42.219 6.76346 42.073C6.62646 41.9268 6.45913 41.7459 6.39161 41.6711C6.32408 41.5962 6.19006 41.4446 6.09376 41.3341C5.99759 41.2236 5.83389 41.0311 5.73021 40.9064C5.62639 40.7816 5.44934 40.5629 5.33658 40.4203C5.22395 40.2777 5.04029 40.0386 4.92844 39.8889C4.81671 39.7391 4.63863 39.4942 4.53286 39.3444C4.4271 39.1947 4.24772 38.9323 4.13431 38.7612C4.02077 38.5901 3.83919 38.3071 3.73071 38.1325C3.62209 37.9578 3.47187 37.7099 3.39657 37.5816C3.3214 37.4533 3.17714 37.1995 3.07604 37.0178C2.97508 36.8359 2.76848 36.4393 2.61709 36.1363C2.46571 35.8333 2.29035 35.4716 2.22748 35.3327C2.16462 35.1936 2.06184 34.9603 1.99924 34.8142C1.93651 34.668 1.84176 34.4405 1.78849 34.3087C1.73522 34.1767 1.65525 33.9726 1.61067 33.855C1.56621 33.7373 1.47756 33.4953 1.41379 33.3171C1.35002 33.1388 1.24815 32.8384 1.18749 32.6495C1.12683 32.4605 1.02807 32.1353 0.96806 31.9269C0.907921 31.7183 0.821082 31.4004 0.774941 31.2205C0.728799 31.0404 0.66205 30.7677 0.626796 30.6145C0.591412 30.4611 0.533347 30.1928 0.497704 30.0182C0.461931 29.8435 0.409439 29.5693 0.381055 29.409C0.35254 29.2485 0.308473 28.9832 0.283199 28.8192C0.257925 28.6553 0.22293 28.4103 0.205303 28.2748C0.187805 28.1394 0.158643 27.8944 0.140627 27.7304C0.122482 27.5664 0.0959117 27.2893 0.0813953 27.1147C0.0667494 26.94 0.0465301 26.6483 0.0364205 26.4666Z" fill="#1A1A1A"/>
<path d="M48.0564 25.7795L48.9183 25.7623C49.0074 25.7606 49.2364 25.758 49.7738 25.7537L49.7674 25.8023C49.7639 25.829 49.7551 25.9821 49.7476 26.1426C49.7402 26.3029 49.7254 26.5654 49.7147 26.7259C49.7039 26.8862 49.6807 27.172 49.6629 27.361C49.6453 27.5499 49.6163 27.827 49.5984 27.9767C49.5805 28.1264 49.5455 28.3917 49.5205 28.5665C49.4956 28.7411 49.4493 29.0357 49.4179 29.2211C49.3862 29.4064 49.3394 29.6659 49.3136 29.7979C49.2879 29.9297 49.2287 30.2097 49.1825 30.4201C49.1361 30.6303 49.0604 30.9511 49.0141 31.133C48.9678 31.3147 48.9007 31.5685 48.8648 31.6968C48.8288 31.8251 48.7645 32.0468 48.7217 32.1894C48.6789 32.332 48.5942 32.6003 48.5333 32.7856C48.4725 32.971 48.3745 33.2568 48.3156 33.4208C48.2567 33.5847 48.1645 33.8326 48.1107 33.9717C48.0571 34.1106 47.9638 34.3439 47.9035 34.4901C47.8432 34.6362 47.7413 34.8754 47.6773 35.0216C47.6132 35.1677 47.5092 35.3981 47.4465 35.5336C47.3836 35.669 47.2381 35.9665 47.1228 36.1947C47.0076 36.4228 46.8564 36.7144 46.7866 36.8428C46.7169 36.9711 46.5983 37.1839 46.5231 37.3159C46.4478 37.4477 46.3126 37.6782 46.2227 37.8279C46.1327 37.9776 45.9924 38.2051 45.9109 38.3334C45.8293 38.4617 45.6747 38.6979 45.5673 38.8584C45.4598 39.0187 45.2909 39.2637 45.192 39.4028C45.093 39.5417 44.9248 39.7722 44.818 39.9148C44.7112 40.0574 44.548 40.2702 44.4555 40.3879C44.3629 40.5055 44.208 40.6979 44.1112 40.8156C44.0144 40.9332 43.8625 41.114 43.7737 41.2175C43.6848 41.3208 43.5418 41.4841 43.456 41.5804C43.3701 41.6766 43.2243 41.8371 43.132 41.9369C43.0397 42.0367 42.7859 42.2981 42.5681 42.5181C42.3503 42.7379 42.0555 43.027 41.9129 43.1606C41.7703 43.2941 41.5924 43.4586 41.5176 43.526C41.4427 43.5935 41.3144 43.7075 41.2324 43.7794C41.1504 43.8512 40.9546 44.0173 40.7971 44.1483C40.6397 44.2794 40.4064 44.4687 40.2786 44.5691C40.151 44.6693 39.9299 44.8388 39.7873 44.9458C39.6447 45.0526 39.4143 45.2211 39.2753 45.32C39.1362 45.4189 38.8768 45.597 38.6986 45.7158C38.5203 45.8346 38.2841 45.9891 38.1736 46.0592C38.0631 46.1293 37.8619 46.2534 37.7265 46.3349C37.591 46.4164 37.3811 46.5398 37.2599 46.6093C37.1387 46.6787 36.9549 46.7821 36.8516 46.8391C36.7482 46.8962 36.512 47.022 36.3267 47.1188C36.1413 47.2155 35.8381 47.3672 35.6527 47.4559C35.4674 47.5445 35.1844 47.6756 35.0241 47.7471C34.8636 47.8187 34.6245 47.9221 34.4927 47.9772C34.3608 48.0322 34.1683 48.111 34.065 48.1522C33.9616 48.1934 33.7283 48.2826 33.5465 48.3504C33.3647 48.418 33.0761 48.5211 32.905 48.5793C32.7339 48.6375 32.4714 48.723 32.3217 48.7696C32.172 48.8161 31.9066 48.8952 31.732 48.9451C31.5573 48.9951 31.2453 49.079 31.0386 49.1316C30.8319 49.1841 30.5197 49.259 30.3452 49.298C30.1704 49.3369 29.9226 49.3899 29.7943 49.4157C29.666 49.4417 29.4472 49.483 29.3083 49.5078C29.1692 49.5324 28.9272 49.5728 28.7704 49.5973C28.6136 49.6218 28.3773 49.6564 28.2455 49.6742C28.1135 49.6919 27.9036 49.7184 27.7789 49.7328C27.6541 49.7473 27.4616 49.7679 27.3512 49.7787C27.2406 49.7894 27.0453 49.8067 26.917 49.8172C26.7887 49.8275 26.5787 49.8424 26.4504 49.8502C26.3221 49.858 26.1457 49.8699 26.0583 49.8767C25.9709 49.8835 25.8398 49.8891 25.6338 49.8891L25.6425 49.3544C25.6473 49.0603 25.6577 48.5193 25.6657 48.1522C25.6736 47.785 25.6887 47.2075 25.699 46.8689C25.7094 46.5302 25.7239 46.0957 25.7312 45.9033C25.7386 45.7108 25.7533 45.3608 25.7641 45.1255C25.7748 44.8903 25.7952 44.4878 25.8094 44.2312C25.8236 43.9745 25.8441 43.6304 25.8548 43.4664C25.8656 43.3024 25.886 43.0136 25.9002 42.8248C25.9143 42.6358 25.9405 42.315 25.9584 42.1119C25.9763 41.9086 26.0083 41.5703 26.0297 41.3601C26.0509 41.1497 26.0859 40.8289 26.1073 40.6471C26.1288 40.4653 26.1638 40.1853 26.1853 40.025C26.2068 39.8645 26.2449 39.5962 26.2701 39.4287C26.2952 39.2611 26.339 38.987 26.3675 38.8195C26.3961 38.6519 26.4456 38.3777 26.4776 38.2103C26.5096 38.0427 26.5681 37.7569 26.6076 37.5751C26.647 37.3933 26.7194 37.0841 26.7684 36.8881C26.8174 36.692 26.901 36.38 26.9542 36.1947C27.0072 36.0093 27.0927 35.7293 27.144 35.5725C27.1955 35.4156 27.2753 35.1823 27.3216 35.054C27.3679 34.9257 27.4524 34.704 27.5093 34.5614C27.5662 34.4189 27.6568 34.203 27.7104 34.0818C27.7642 33.9606 27.8618 33.7507 27.9274 33.6152C27.9929 33.4798 28.105 33.261 28.1765 33.1291C28.2479 32.9972 28.3637 32.793 28.4335 32.6755C28.5035 32.5578 28.6256 32.3624 28.7051 32.2412C28.7844 32.12 28.91 31.9362 28.9841 31.8329C29.0583 31.7295 29.18 31.5662 29.2547 31.47C29.3294 31.3737 29.4315 31.2453 29.4817 31.1848C29.5319 31.1242 29.6291 31.0105 29.6978 30.9321C29.7663 30.8536 29.9099 30.6961 30.0167 30.5821C30.1237 30.468 30.3039 30.2864 30.4175 30.1784C30.5309 30.0706 30.6967 29.9179 30.7858 29.8391C30.8749 29.7603 31.0237 29.6336 31.1163 29.5576C31.209 29.4815 31.3868 29.3425 31.5117 29.2488C31.6363 29.1551 31.8696 28.9906 32.0301 28.8833C32.1904 28.7758 32.415 28.6323 32.5291 28.5643C32.6432 28.4962 32.8284 28.3902 32.9406 28.3285C33.0529 28.2669 33.2483 28.1646 33.3748 28.1014C33.5013 28.038 33.701 27.9423 33.8187 27.8887C33.9363 27.835 34.1229 27.7534 34.2335 27.7073C34.3439 27.6615 34.5335 27.5856 34.6547 27.5391C34.7759 27.4926 34.9829 27.4166 35.1148 27.3703C35.2466 27.3239 35.4771 27.2478 35.6268 27.201C35.7765 27.1543 36.0331 27.0782 36.1971 27.0319C36.361 26.9857 36.6118 26.9187 36.7544 26.883C36.897 26.8473 37.1303 26.7918 37.2728 26.7597C37.4154 26.7275 37.6457 26.6779 37.7848 26.6495C37.9237 26.6211 38.1659 26.5743 38.3227 26.5456C38.4795 26.5168 38.7507 26.47 38.9254 26.4416C39.1 26.4133 39.3857 26.3695 39.5605 26.3443C39.735 26.319 40.0413 26.2781 40.2409 26.2533C40.4405 26.2285 40.7642 26.1907 40.9603 26.1693C41.1562 26.1477 41.5092 26.1126 41.7444 26.0911C41.9796 26.0697 42.3208 26.0406 42.5026 26.0264C42.6843 26.0124 43.0081 25.9891 43.222 25.9747C43.4358 25.9603 43.8208 25.937 44.0774 25.9227C44.334 25.9086 44.6693 25.891 44.8226 25.8837C44.9758 25.8765 45.3229 25.8617 45.5938 25.851C45.8647 25.8404 46.3721 25.8232 46.7214 25.8127C47.0707 25.8022 47.6715 25.7871 48.0564 25.7795Z" fill="#1A1A1A"/>
<path d="M24.1318 0.723916C24.1361 0.406604 24.1421 0.139715 24.1449 0.130771C24.1491 0.117938 24.3051 0.115216 25.6347 0.121179L25.6434 0.6267C25.6482 0.904737 25.6585 1.4472 25.6664 1.83217C25.6742 2.21715 25.6865 2.73045 25.6935 2.97284C25.7007 3.21523 25.7152 3.65568 25.7258 3.95148C25.7364 4.2474 25.7539 4.68189 25.7647 4.91715C25.7754 5.15241 25.7959 5.55489 25.81 5.81153C25.8243 6.06818 25.8476 6.45316 25.862 6.66703C25.8763 6.88091 25.9026 7.23957 25.9205 7.4642C25.9385 7.68883 25.9676 8.03 25.9854 8.22248C26.0032 8.41497 26.044 8.80876 26.0763 9.09742C26.1084 9.38609 26.158 9.79439 26.1864 10.0048C26.2148 10.2151 26.2617 10.5388 26.2905 10.7242C26.3194 10.9095 26.3662 11.1925 26.3945 11.3528C26.4228 11.5133 26.4694 11.7641 26.498 11.9102C26.5267 12.0563 26.5821 12.3217 26.6213 12.5C26.6604 12.6782 26.7307 12.9757 26.7773 13.161C26.824 13.3464 26.8995 13.6278 26.9452 13.7865C26.9907 13.9451 27.0695 14.2046 27.12 14.3633C27.1707 14.5219 27.2499 14.7567 27.2962 14.885C27.3424 15.0133 27.4286 15.2408 27.4876 15.3905C27.5467 15.5402 27.6465 15.7794 27.7095 15.922C27.7725 16.0645 27.8861 16.3065 27.962 16.4599C28.0379 16.6132 28.148 16.8261 28.2067 16.933C28.2654 17.0399 28.3724 17.2266 28.4446 17.3478C28.5167 17.469 28.6634 17.6995 28.7707 17.8598C28.8779 18.0203 29.0357 18.2448 29.1212 18.3587C29.2067 18.4728 29.3459 18.6506 29.4305 18.754C29.515 18.8575 29.6695 19.0383 29.7737 19.156C29.878 19.2737 30.0859 19.4925 30.2357 19.6422C30.3854 19.792 30.6065 20.002 30.7269 20.1088C30.8473 20.2158 31.0193 20.3636 31.1093 20.4374C31.1991 20.5113 31.3777 20.6505 31.506 20.7467C31.6343 20.8429 31.8588 21.0018 32.005 21.0999C32.1512 21.1979 32.3729 21.3395 32.4976 21.4144C32.6224 21.4893 32.7988 21.5922 32.8896 21.643C32.9805 21.6938 33.1963 21.8064 33.3692 21.8929C33.5421 21.9795 33.7943 22.0997 33.9297 22.16C34.0652 22.2202 34.2898 22.315 34.4287 22.3706C34.5677 22.4262 34.8098 22.5181 34.9666 22.575C35.1235 22.6319 35.3626 22.7137 35.498 22.757C35.6335 22.8002 35.8346 22.8625 35.9452 22.8956C36.0557 22.9285 36.2861 22.9925 36.4571 23.0379C36.6282 23.0833 36.9052 23.1525 37.0728 23.1919C37.2404 23.2312 37.5028 23.2896 37.656 23.3216C37.8092 23.3538 38.028 23.3976 38.1421 23.4192C38.2561 23.4407 38.4836 23.4817 38.6476 23.5101C38.8115 23.5386 39.0798 23.5823 39.2438 23.6073C39.4077 23.6322 39.6497 23.6675 39.7817 23.6853C39.9136 23.7034 40.1381 23.7325 40.2807 23.7503C40.4232 23.768 40.6712 23.7971 40.8315 23.815C40.992 23.8327 41.3039 23.8647 41.5249 23.886C41.7459 23.9073 42.0697 23.9365 42.2443 23.9512C42.4188 23.9657 42.7223 23.9892 42.9182 24.0032C43.1143 24.0173 43.371 24.0349 43.4885 24.0422C43.6061 24.0496 43.9123 24.0672 44.169 24.0813C44.4256 24.0955 44.761 24.113 44.9142 24.1201C45.0674 24.1273 45.4145 24.142 45.6854 24.1526C45.9563 24.1633 46.4637 24.1806 46.813 24.1911C47.1623 24.2016 47.7601 24.2168 48.1415 24.2247C48.523 24.2326 49.0449 24.243 49.7681 24.2566L49.7749 25.7472L49.1753 25.7572C48.8456 25.7628 48.3161 25.7729 47.999 25.7799C47.6818 25.7868 47.2092 25.7984 46.9491 25.8057C46.689 25.8131 46.2339 25.8278 45.9381 25.8385C45.6424 25.8492 45.2078 25.8666 44.9725 25.8774C44.7373 25.888 44.3349 25.9085 44.0782 25.9227C43.8216 25.937 43.4367 25.9603 43.2228 25.9747C43.009 25.9891 42.6853 26.0124 42.5035 26.0266C42.3216 26.0407 41.9805 26.0697 41.7453 26.0912C41.51 26.1126 41.1572 26.1478 40.9611 26.1693C40.7651 26.1908 40.4414 26.2286 40.2418 26.2534C40.0422 26.2781 39.7359 26.3191 39.5613 26.3443C39.3867 26.3695 39.1008 26.4133 38.9262 26.4417C38.7516 26.47 38.4804 26.5168 38.3235 26.5456C38.1667 26.5745 37.9246 26.6213 37.7857 26.6496C37.6467 26.678 37.4163 26.7275 37.2737 26.7597C37.1311 26.7918 36.8978 26.8474 36.7553 26.8831C36.6127 26.9187 36.3619 26.9857 36.1979 27.032C36.034 27.0782 35.7773 27.1543 35.6276 27.201C35.4779 27.2478 35.2476 27.3241 35.1157 27.3703C34.9837 27.4166 34.7767 27.4926 34.6556 27.5392C34.5344 27.5858 34.3449 27.6615 34.2343 27.7075C34.1238 27.7535 33.9371 27.835 33.8196 27.8887C33.702 27.9424 33.5022 28.0381 33.3757 28.1014C33.2492 28.1646 33.0537 28.2669 32.9415 28.3286C32.8292 28.3902 32.644 28.4963 32.53 28.5643C32.4159 28.6323 32.1913 28.7759 32.031 28.8833C31.8705 28.9906 31.6372 29.1551 31.5125 29.2488C31.3877 29.3425 31.2099 29.4815 31.1172 29.5576C31.0245 29.6336 30.8759 29.7604 30.7867 29.8391C30.6977 29.9179 30.5318 30.0706 30.4183 30.1786C30.3048 30.2864 30.1245 30.468 30.0176 30.5821C29.9108 30.6961 29.7672 30.8536 29.6986 30.9321C29.6299 31.0105 29.5327 31.1242 29.4826 31.1848C29.4324 31.2455 29.3303 31.3737 29.2556 31.47C29.1808 31.5663 29.0591 31.7296 28.985 31.8329C28.9108 31.9362 28.7852 32.12 28.7059 32.2412C28.6265 32.3624 28.5044 32.5579 28.4344 32.6755C28.3645 32.793 28.2488 32.9972 28.1774 33.1291C28.1058 33.2611 27.9937 33.4798 27.9283 33.6152C27.8627 33.7507 27.7651 33.9606 27.7113 34.0818C27.6576 34.203 27.567 34.4189 27.5101 34.5614C27.4532 34.704 27.3687 34.9257 27.3225 35.054C27.2762 35.1823 27.1964 35.4156 27.1449 35.5725C27.0936 35.7293 27.008 36.0093 26.955 36.1947C26.9019 36.38 26.8183 36.6921 26.7693 36.8881C26.7203 37.0843 26.6478 37.3933 26.6084 37.5751C26.5689 37.757 26.5105 38.0427 26.4784 38.2103C26.4464 38.3779 26.3969 38.6519 26.3684 38.8195C26.3399 38.9871 26.2961 39.2611 26.2709 39.4287C26.2458 39.5963 26.2077 39.8646 26.1862 40.025C26.1647 40.1854 26.1297 40.4653 26.1081 40.6471C26.0868 40.829 26.0518 41.1498 26.0305 41.3601C26.0091 41.5703 25.9771 41.9086 25.9592 42.1119C25.9415 42.3151 25.9152 42.6359 25.901 42.8248C25.8869 43.0136 25.8664 43.3024 25.8557 43.4664C25.8449 43.6304 25.8244 43.9745 25.8103 44.2312C25.796 44.4878 25.7757 44.8903 25.7649 45.1255C25.7542 45.3608 25.7394 45.7108 25.732 45.9033C25.7248 46.0958 25.7102 46.5304 25.6999 46.8689C25.6895 47.2076 25.6745 47.7851 25.6664 48.1522C25.6584 48.5193 25.648 49.0589 25.6347 49.8826H24.1442L24.1355 49.3901C24.1307 49.1192 24.1203 48.5767 24.1123 48.1846C24.1044 47.7925 24.0893 47.1888 24.0791 46.843C24.0687 46.4972 24.0543 46.0597 24.0471 45.8709C24.0397 45.682 24.0249 45.332 24.014 45.0931C24.0031 44.8542 23.9827 44.4489 23.9685 44.1923C23.9544 43.9356 23.9312 43.5506 23.9168 43.3368C23.9026 43.1229 23.8763 42.7641 23.8584 42.5396C23.8405 42.3151 23.8113 41.9767 23.7937 41.7878C23.7761 41.5989 23.7439 41.281 23.7224 41.0814C23.7008 40.8818 23.6628 40.5551 23.6379 40.3555C23.613 40.1559 23.5721 39.8496 23.547 39.675C23.5219 39.5004 23.4782 39.2144 23.4498 39.0398C23.4215 38.8652 23.3747 38.5939 23.3459 38.4371C23.317 38.2803 23.2702 38.0381 23.2418 37.8992C23.2134 37.7602 23.1639 37.5298 23.1318 37.3872C23.0996 37.2446 23.047 37.0229 23.015 36.8946C22.9829 36.7663 22.9186 36.5243 22.8719 36.3567C22.8254 36.1891 22.7445 35.9151 22.692 35.7475C22.6396 35.5799 22.565 35.3525 22.5262 35.242C22.4874 35.1314 22.4192 34.9447 22.3746 34.8272C22.33 34.7096 22.2513 34.5113 22.1996 34.3865C22.1478 34.2618 22.0612 34.0619 22.007 33.9425C21.9527 33.8231 21.8565 33.6218 21.7933 33.4953C21.7299 33.3688 21.6302 33.1777 21.5717 33.0708C21.5131 32.9639 21.4061 32.7772 21.3341 32.656C21.262 32.5348 21.1154 32.3044 21.0081 32.1439C20.9009 31.9834 20.7363 31.7501 20.6423 31.6254C20.5485 31.5007 20.4114 31.3251 20.3378 31.2352C20.2643 31.1453 20.1166 30.9733 20.0098 30.8529C19.9031 30.7324 19.6901 30.5085 19.5368 30.3552C19.3833 30.2019 19.1792 30.0064 19.0829 29.9209C18.9867 29.8352 18.8379 29.7065 18.7524 29.6347C18.6668 29.5629 18.5182 29.4431 18.4219 29.3684C18.3257 29.2936 18.1623 29.1719 18.059 29.0978C17.9557 29.0236 17.7719 28.898 17.6507 28.8187C17.5295 28.7393 17.337 28.6188 17.223 28.5509C17.1089 28.4831 16.9164 28.3732 16.7953 28.3067C16.6741 28.2402 16.4466 28.1233 16.2898 28.047C16.1329 27.9707 15.9113 27.8673 15.7973 27.8171C15.6832 27.7671 15.5082 27.6928 15.4084 27.6521C15.3086 27.6114 15.1132 27.5357 14.9742 27.4839C14.8353 27.4322 14.5873 27.3452 14.4234 27.2906C14.2594 27.236 14.0086 27.157 13.8661 27.115C13.7235 27.0729 13.4844 27.0056 13.3347 26.9655C13.185 26.9255 12.9313 26.8613 12.7709 26.8232C12.6105 26.785 12.3509 26.7266 12.1941 26.6936C12.0373 26.6605 11.7923 26.611 11.6497 26.5835C11.5071 26.5562 11.233 26.5071 11.0406 26.4745C10.8481 26.442 10.5536 26.3951 10.386 26.3703C10.2186 26.3456 9.92396 26.3047 9.73149 26.2794C9.53901 26.2543 9.17157 26.2104 8.91494 26.1821C8.65831 26.1537 8.25587 26.113 8.02063 26.0916C7.78539 26.0702 7.44425 26.0411 7.26241 26.0267C7.0807 26.0123 6.75693 25.989 6.54307 25.9747C6.32921 25.9604 5.94427 25.9371 5.68764 25.923C5.43101 25.9089 5.09273 25.8912 4.9359 25.8837C4.77907 25.8763 4.43211 25.8617 4.16472 25.8512C3.89746 25.8408 3.48336 25.8262 3.24449 25.8188C3.00574 25.8113 2.60032 25.7997 2.34369 25.7928C2.08707 25.7861 1.46299 25.7741 0.956864 25.766C0.450735 25.758 0.0293716 25.7489 0.0204285 25.7461C0.00772671 25.7419 0.00487528 25.5831 0.0107077 24.2566L0.516188 24.2479C0.794203 24.243 1.33377 24.2327 1.71508 24.2248C2.09653 24.2169 2.6068 24.2049 2.84917 24.1979C3.09155 24.191 3.46197 24.1793 3.6722 24.1721C3.88256 24.1649 4.19453 24.1531 4.36562 24.146C4.5367 24.1389 4.86047 24.1242 5.08495 24.1133C5.30957 24.1026 5.69451 24.0821 5.94038 24.0679C6.18638 24.0536 6.58882 24.0275 6.83469 24.0098C7.0807 23.9922 7.42183 23.966 7.59292 23.9516C7.764 23.9372 8.05562 23.9109 8.24097 23.8931C8.42631 23.8755 8.78792 23.8374 9.04455 23.8086C9.30118 23.7798 9.68327 23.733 9.8935 23.7047C10.1039 23.6763 10.3896 23.6354 10.5286 23.6142C10.6677 23.5929 10.936 23.549 11.1248 23.5167C11.3138 23.4844 11.6316 23.4258 11.8312 23.3864C12.0308 23.347 12.3224 23.2857 12.4792 23.2503C12.6361 23.2148 12.8694 23.1595 12.9977 23.1272C13.126 23.095 13.336 23.0402 13.4643 23.0054C13.5926 22.9706 13.8055 22.9094 13.9373 22.8694C14.0693 22.8293 14.2675 22.7671 14.378 22.7309C14.4886 22.6949 14.6956 22.623 14.8381 22.5713C14.9807 22.5195 15.2198 22.4279 15.3695 22.3674C15.5192 22.307 15.7321 22.2175 15.8426 22.1685C15.9532 22.1197 16.1806 22.0118 16.3481 21.929C16.5157 21.8462 16.7606 21.7182 16.8925 21.6447C17.0244 21.5711 17.2139 21.4613 17.3137 21.4006C17.4135 21.34 17.6001 21.2203 17.7284 21.1348C17.8568 21.0492 18.0347 20.9262 18.1238 20.8617C18.2129 20.797 18.3529 20.6919 18.4348 20.628C18.5169 20.5642 18.6539 20.4534 18.7394 20.3817C18.825 20.3101 18.9533 20.1997 19.0246 20.1363C19.0958 20.0729 19.2441 19.9358 19.3541 19.8316C19.4641 19.7274 19.65 19.5401 19.7673 19.4152C19.8846 19.2905 20.0461 19.1126 20.1264 19.0199C20.2065 18.9272 20.3472 18.7574 20.439 18.6426C20.5308 18.5276 20.6668 18.3498 20.7415 18.2472C20.8162 18.1446 20.9452 17.9587 21.0282 17.8339C21.1111 17.7092 21.2404 17.505 21.3153 17.3802C21.3903 17.2555 21.4997 17.0659 21.5584 16.9589C21.6171 16.852 21.728 16.6392 21.8047 16.4858C21.8813 16.3325 21.9995 16.0818 22.0672 15.9284C22.1348 15.7751 22.2341 15.5389 22.2879 15.4035C22.3415 15.268 22.4233 15.0522 22.4695 14.9239C22.5157 14.7956 22.5926 14.5711 22.6403 14.4248C22.6881 14.2786 22.7704 14.0089 22.8233 13.8253C22.8761 13.6418 22.9569 13.3413 23.0029 13.1578C23.0488 12.9743 23.1069 12.7335 23.1318 12.6231C23.1565 12.5127 23.2005 12.3085 23.2292 12.1694C23.2581 12.0304 23.302 11.8087 23.3266 11.6769C23.3513 11.5451 23.3979 11.2796 23.4301 11.0871C23.4623 10.8946 23.5089 10.5971 23.5338 10.426C23.5587 10.2549 23.5938 10.0013 23.612 9.86219C23.6301 9.7231 23.6594 9.48693 23.6769 9.33722C23.6945 9.18751 23.7266 8.89301 23.7481 8.68264C23.7696 8.47226 23.8017 8.13395 23.8195 7.93084C23.8374 7.72772 23.8636 7.40691 23.8778 7.21792C23.8921 7.02893 23.9127 6.74027 23.9236 6.5763C23.9345 6.41233 23.9548 6.06818 23.9689 5.81153C23.9831 5.55489 24.0034 5.15241 24.0142 4.91715C24.0249 4.68189 24.0424 4.24727 24.053 3.95148C24.0635 3.65568 24.0783 3.20058 24.0856 2.94043C24.093 2.68028 24.1046 2.20483 24.1115 1.88402C24.1184 1.56321 24.1274 1.04123 24.1318 0.723916Z" fill="white"/>
<circle cx="25.1602" cy="25" r="24" stroke="white" stroke-width="2"/>
</svg>
