<svg width="122" height="122" viewBox="0 0 122 122" fill="none" xmlns="http://www.w3.org/2000/svg">
<path d="M56.9878 0.357827C57.4559 0.330944 57.8531 0.303428 57.8704 0.296786C57.8878 0.289828 58.0864 0.283187 58.7216 0.279391L58.7005 1.48914C58.6888 2.15458 58.6633 3.48167 58.644 4.43841C58.6248 5.39514 58.5882 6.86803 58.563 7.71185C58.5381 8.55567 58.5028 9.63006 58.4848 10.0997C58.4669 10.5694 58.4309 11.4233 58.4051 11.9974C58.3792 12.5714 58.3297 13.5534 58.2954 14.1797C58.261 14.8059 58.2115 15.6456 58.185 16.0457C58.1586 16.4458 58.1084 17.1501 58.0738 17.6113C58.0391 18.0724 57.9754 18.8552 57.9319 19.3508C57.8887 19.8464 57.8105 20.6718 57.7582 21.1852C57.7059 21.6985 57.628 22.417 57.5851 22.7823C57.5426 23.1476 57.4713 23.7239 57.4272 24.0633C57.3831 24.4026 57.2976 25.0216 57.2371 25.4391C57.1766 25.8565 57.0631 26.5824 56.9849 27.0521C56.9064 27.5217 56.7933 28.1695 56.733 28.4911C56.6731 28.8128 56.5666 29.3536 56.4963 29.693C56.4263 30.0323 56.3195 30.5304 56.2592 30.7999C56.1987 31.0694 56.0575 31.6567 55.9459 32.1045C55.834 32.5524 55.6373 33.2855 55.509 33.7334C55.3803 34.1812 55.1802 34.8394 55.0639 35.1961C54.9478 35.5529 54.7609 36.1007 54.6484 36.4138C54.5361 36.7269 54.3372 37.2535 54.2067 37.584C54.0759 37.9145 53.8344 38.4908 53.6699 38.8649C53.5053 39.2391 53.2178 39.8507 53.0315 40.2249C52.8449 40.5991 52.5753 41.1184 52.4325 41.3793C52.2897 41.6402 52.0237 42.1029 51.8412 42.4072C51.6589 42.7118 51.3447 43.2099 51.1429 43.5142C50.9411 43.8187 50.6272 44.2723 50.4456 44.5228C50.264 44.7729 49.933 45.2069 49.7098 45.4874C49.4866 45.7676 49.1443 46.1819 48.9495 46.4081C48.7543 46.6342 48.3615 47.0685 48.0762 47.3727C47.791 47.6773 47.3386 48.1343 47.0713 48.3886C46.8036 48.6429 46.443 48.9775 46.2696 49.1322C46.0962 49.2868 45.7841 49.5563 45.5761 49.7309C45.368 49.9058 45.0348 50.1762 44.8353 50.3318C44.6357 50.4877 44.2956 50.7442 44.0787 50.902C43.8621 51.0595 43.4293 51.3597 43.1172 51.5684C42.8051 51.7772 42.3512 52.0691 42.1084 52.2171C41.8657 52.3651 41.4045 52.633 41.0839 52.8126C40.7633 52.992 40.1672 53.3041 39.7599 53.5062C39.3526 53.7083 38.7994 53.9715 38.5305 54.0907C38.2616 54.2103 37.744 54.4285 37.3799 54.5759C37.0158 54.7236 36.4341 54.9472 36.0874 55.0734C35.7406 55.1996 35.2372 55.3751 34.9683 55.463C34.6994 55.5513 34.2171 55.7031 33.8965 55.8008C33.5759 55.8985 33.0579 56.0478 32.7458 56.1326C32.4337 56.2177 31.9231 56.3514 31.611 56.4299C31.2989 56.5086 30.7314 56.6437 30.35 56.7303C29.9686 56.8167 29.2593 56.9663 28.7738 57.0624C28.2883 57.1586 27.5154 57.3015 27.0558 57.3803C26.5961 57.459 25.9439 57.5662 25.6057 57.6181C25.2674 57.67 24.5726 57.7696 24.061 57.8389C23.5493 57.9081 22.6203 58.0223 21.9962 58.0925C21.372 58.1627 20.4925 58.2557 20.0417 58.2987C19.5909 58.3421 18.8816 58.4063 18.4655 58.4414C18.0494 58.4765 17.2196 58.5404 16.6213 58.5834C16.023 58.6267 15.0445 58.6903 14.4462 58.7251C13.8478 58.7599 12.9119 58.8098 12.3656 58.8361C11.8196 58.8627 11.0321 58.8984 10.616 58.9158C10.1999 58.9332 9.44111 58.962 8.92948 58.9794C8.41784 58.9971 7.5172 59.0255 6.92771 59.0423C6.33821 59.0594 5.09711 59.0888 4.16936 59.1081C3.24192 59.1271 1.92422 59.1524 0 59.1856L0.0182839 58.6637C0.0283716 58.3765 0.0583193 57.8003 0.0854299 57.3828C0.112225 56.9653 0.148478 56.4387 0.166447 56.2126C0.1841 55.9865 0.220353 55.5668 0.246517 55.2796C0.272997 54.9924 0.330056 54.4446 0.373559 54.0619C0.417062 53.6792 0.487676 53.1027 0.530548 52.781C0.573736 52.4594 0.659166 51.8758 0.720638 51.4843C0.782109 51.0931 0.887715 50.4668 0.954861 50.0927C1.02232 49.7185 1.14274 49.0926 1.22281 48.7011C1.30289 48.3098 1.43182 47.7118 1.50968 47.3727C1.58723 47.0337 1.73476 46.4214 1.83753 46.0127C1.9403 45.6041 2.13701 44.871 2.27477 44.3839C2.41253 43.8969 2.64108 43.1283 2.78294 42.676C2.92479 42.2238 3.15429 41.5264 3.29268 41.1263C3.43107 40.7262 3.67254 40.0573 3.82922 39.6398C3.98589 39.2223 4.22011 38.6173 4.34968 38.2956C4.47924 37.974 4.71 37.4189 4.86257 37.0622C5.01483 36.7054 5.26482 36.1361 5.41802 35.7971C5.57091 35.458 5.98293 34.6041 6.33316 33.8994C6.68339 33.1947 7.12189 32.3411 7.30725 32.0018C7.49262 31.6624 7.78642 31.1361 7.96012 30.8315C8.1335 30.5273 8.42478 30.0292 8.6073 29.7246C8.78983 29.4203 9.12366 28.8792 9.34906 28.5227C9.57477 28.1663 9.94392 27.597 10.1696 27.2576C10.3953 26.9183 10.7853 26.349 11.0362 25.9925C11.2868 25.6361 11.7364 25.0168 12.0349 24.6167C12.3334 24.2167 12.8091 23.5974 13.0919 23.2409C13.3747 22.8845 13.7839 22.3791 14.0007 22.1182C14.2176 21.8572 14.5868 21.423 14.8207 21.1535C15.0549 20.8841 15.3746 20.521 15.5312 20.347C15.6879 20.1731 15.9934 19.8385 16.2103 19.6038C16.4271 19.3691 16.9523 18.8229 17.3773 18.3902C17.8025 17.9579 18.4273 17.3386 18.7662 17.0144C19.1048 16.6903 19.5943 16.2326 19.8538 15.997C20.1132 15.7614 20.5454 15.3761 20.814 15.1405C21.0826 14.9052 21.5507 14.5061 21.8543 14.254C22.1576 14.0019 22.6471 13.6034 22.9419 13.3687C23.2366 13.1341 23.7404 12.7422 24.061 12.498C24.3816 12.2539 24.9777 11.8155 25.385 11.5239C25.7923 11.2326 26.5016 10.7421 26.9612 10.4347C27.4208 10.1269 28.1512 9.65441 28.5847 9.38431C29.0181 9.11421 29.6281 8.74354 29.9402 8.56042C30.2523 8.37761 30.6848 8.12807 30.9017 8.00567C31.1182 7.88359 31.5653 7.63721 31.8947 7.4582C32.2241 7.2795 33.0113 6.87499 33.6443 6.55998C34.2773 6.24465 35.0717 5.86101 35.4096 5.7073C35.7475 5.55327 36.3222 5.29962 36.6863 5.14275C37.0504 4.98619 37.6674 4.73001 38.0576 4.57345C38.4476 4.4169 39.0717 4.17495 39.4447 4.0361C39.8176 3.89726 40.3992 3.68694 40.7372 3.56928C41.0751 3.45131 41.7135 3.23972 42.1557 3.0993C42.598 2.95856 43.3319 2.73621 43.7871 2.60528C44.2423 2.47402 44.9727 2.27477 45.4106 2.16218C45.8484 2.04958 46.5187 1.88512 46.9001 1.79688C47.2815 1.70832 48.0476 1.54512 48.6024 1.43379C49.1572 1.32247 49.9942 1.16717 50.4623 1.08905C50.9304 1.01062 51.675 0.896443 52.1173 0.835402C52.5596 0.774361 53.3042 0.681693 53.7723 0.629507C54.2404 0.577322 54.9639 0.505844 55.38 0.470738C55.7962 0.435631 56.5196 0.384711 56.9878 0.357827Z" fill="white"/>
<path d="M62.4241 4.47003C62.4051 3.5307 62.3799 2.20171 62.3683 1.51697L62.3468 0.271484L62.8512 0.289512C63.1286 0.299317 63.604 0.322405 63.9073 0.340749C64.2108 0.359409 64.7496 0.396413 65.1052 0.423296C65.4608 0.449863 66.113 0.507109 66.5553 0.550439C66.9976 0.593768 67.7494 0.678846 68.2261 0.739255C68.703 0.799663 69.4192 0.899606 69.818 0.96128C70.2168 1.02295 70.7842 1.11594 71.079 1.16749C71.3737 1.21904 71.9055 1.31867 72.2611 1.38888C72.6167 1.4591 73.262 1.59509 73.6955 1.69061C74.1289 1.78644 74.824 1.95027 75.2401 2.05496C75.6562 2.15933 76.2804 2.32284 76.6272 2.41804C76.9739 2.51324 77.6054 2.69636 78.03 2.82477C78.4546 2.95286 79.0719 3.14611 79.4013 3.25396C79.7307 3.36149 80.2909 3.55315 80.6465 3.67966C81.0021 3.80617 81.5481 4.00574 81.8602 4.12276C82.1722 4.23978 82.7539 4.46782 83.1526 4.6288C83.5514 4.7901 84.1898 5.05736 84.5712 5.22277C84.9527 5.38818 85.5627 5.66112 85.9268 5.82938C86.2909 5.99764 87.0358 6.35946 87.5818 6.63367C88.1278 6.90756 88.8585 7.28583 89.2052 7.47369C89.552 7.66188 90.1478 7.99397 90.5293 8.21188C90.9107 8.42948 91.4923 8.77169 91.8217 8.97221C92.1512 9.17241 92.6549 9.48552 92.9408 9.66769C93.2268 9.85018 93.7589 10.1987 94.123 10.4426C94.4871 10.6864 95.0473 11.0707 95.3682 11.2965C95.6891 11.522 96.2282 11.9132 96.5661 12.1653C96.904 12.4174 97.4005 12.7957 97.6694 13.0057C97.9383 13.216 98.4203 13.6012 98.7412 13.8621C99.0622 14.1231 99.6151 14.5873 99.9707 14.8938C100.326 15.2003 100.787 15.6048 100.995 15.793C101.203 15.9809 101.657 16.4015 102.004 16.7279C102.351 17.054 103.054 17.7457 103.566 18.2647C104.079 18.7837 104.689 19.4153 104.922 19.668C105.155 19.9207 105.516 20.3192 105.724 20.5536C105.932 20.7879 106.274 21.1788 106.483 21.4224C106.692 21.6659 107.068 22.1141 107.318 22.4186C107.569 22.7229 107.951 23.1998 108.169 23.4782C108.387 23.7565 108.778 24.2688 109.038 24.6167C109.298 24.9646 109.707 25.5267 109.948 25.866C110.189 26.2054 110.628 26.8458 110.924 27.2893C111.22 27.7327 111.683 28.4516 111.954 28.8864C112.224 29.3213 112.616 29.9691 112.823 30.3255C113.031 30.6819 113.343 31.23 113.517 31.5432C113.69 31.8563 114 32.4325 114.205 32.8241C114.411 33.2153 114.759 33.9057 114.979 34.358C115.2 34.8103 115.521 35.4934 115.694 35.8761C115.867 36.2588 116.118 36.8281 116.252 37.1412C116.386 37.4543 116.623 38.0306 116.779 38.4221C116.936 38.8134 117.195 39.4896 117.356 39.9244C117.518 40.3593 117.77 41.0709 117.917 41.5058C118.064 41.9407 118.284 42.6238 118.407 43.0239C118.529 43.424 118.716 44.0572 118.823 44.4314C118.929 44.8055 119.134 45.581 119.279 46.1551C119.424 46.7291 119.635 47.6327 119.748 48.1634C119.862 48.6941 120.019 49.4769 120.097 49.9029C120.175 50.3289 120.281 50.9412 120.333 51.2629C120.384 51.5845 120.469 52.1538 120.522 52.528C120.574 52.9021 120.66 53.578 120.712 54.0303C120.763 54.4826 120.834 55.18 120.87 55.58C120.905 55.9801 120.956 56.6275 120.982 57.0191C121.009 57.4103 121.039 58.0581 121.07 59.1856L119.922 59.1641C119.291 59.1524 118.016 59.1268 117.088 59.1075C116.16 59.0885 114.707 59.0515 113.857 59.0259C113.007 59.0002 111.773 58.9579 111.114 58.9319C110.456 58.906 109.611 58.8703 109.239 58.8525C108.866 58.8351 108.05 58.7924 107.426 58.758C106.802 58.7235 106.057 58.6805 105.771 58.6625C105.485 58.6447 104.861 58.6017 104.384 58.5673C103.907 58.5331 103.169 58.4759 102.745 58.4404C102.32 58.4047 101.533 58.3332 100.995 58.2813C100.458 58.2295 99.6989 58.1514 99.3087 58.108C98.9187 58.0644 98.3157 57.9935 97.9689 57.9502C97.6221 57.9069 97.0761 57.8357 96.7552 57.7918C96.4343 57.7481 95.8458 57.6621 95.447 57.6014C95.0482 57.5403 94.3957 57.4337 93.9969 57.3642C93.5981 57.2949 93.0449 57.1949 92.7675 57.1424C92.49 57.0896 91.9579 56.9827 91.5853 56.9043C91.2127 56.8262 90.5743 56.6835 90.1667 56.5877C89.7591 56.4916 89.0855 56.3227 88.6693 56.212C88.2532 56.1013 87.693 55.945 87.4241 55.8647C87.1552 55.784 86.666 55.6319 86.3366 55.5266C86.0071 55.421 85.4255 55.2214 85.0441 55.0825C84.6626 54.9437 84.0738 54.7195 83.7358 54.5838C83.3979 54.4481 82.8516 54.2169 82.5222 54.0698C82.1927 53.9228 81.5793 53.6296 81.1588 53.4183C80.7382 53.207 80.2133 52.9325 79.9924 52.8085C79.7714 52.6846 79.3423 52.4334 79.0388 52.2506C78.7355 52.0678 78.1964 51.7224 77.8409 51.4833C77.4853 51.2439 76.9393 50.8562 76.6272 50.6215C76.3151 50.3868 75.8807 50.0471 75.6622 49.8669C75.4435 49.6866 75.0251 49.326 74.7323 49.0651C74.4394 48.8045 73.9016 48.2921 73.5375 47.9265C73.1731 47.5612 72.6675 47.0273 72.4137 46.7402C72.1602 46.453 71.7845 46.0118 71.5789 45.7594C71.3734 45.507 71.0348 45.0731 70.8268 44.7948C70.6187 44.5168 70.2351 43.969 69.9744 43.5774C69.7133 43.1862 69.3565 42.6238 69.1812 42.3281C69.0056 42.0324 68.7452 41.577 68.6024 41.3161C68.4596 41.0551 68.192 40.5358 68.0073 40.1616C67.8229 39.7875 67.5464 39.197 67.3932 38.8491C67.24 38.5012 66.9972 37.9177 66.8535 37.5524C66.7101 37.1871 66.5004 36.632 66.3879 36.3189C66.2753 36.0058 66.0827 35.433 65.9595 35.0459C65.8365 34.6588 65.6449 34.0256 65.5342 33.6385C65.4233 33.2514 65.2395 32.5647 65.126 32.1125C65.0125 31.6602 64.8416 30.9343 64.7464 30.4995C64.6512 30.0646 64.5163 29.4168 64.4466 29.0604C64.377 28.704 64.2638 28.092 64.1948 27.7004C64.126 27.3092 64.0122 26.6188 63.9419 26.1665C63.872 25.7142 63.7578 24.9245 63.6888 24.4112C63.6198 23.8978 63.499 22.9016 63.4208 22.1972C63.3424 21.4929 63.2431 20.5321 63.1999 20.0624C63.1567 19.5927 63.0858 18.7603 63.0419 18.2122C62.9984 17.6641 62.9344 16.7889 62.8998 16.2671C62.8648 15.7452 62.808 14.8059 62.7733 14.1797C62.739 13.5534 62.6892 12.5714 62.663 11.9974C62.6369 11.4233 62.5943 10.3629 62.5684 9.64113C62.5426 8.91939 62.5073 7.84469 62.49 7.25325C62.4729 6.66182 62.443 5.40937 62.4241 4.47003Z" fill="white"/>
<path d="M0.0885823 64.5784C0.0636784 64.1346 0.0340459 63.5584 0.0226973 63.2975L0.00189144 62.8231L0.249355 62.83C0.385538 62.8338 1.39052 62.8518 2.48283 62.8702C3.57513 62.8885 5.0079 62.9173 5.66675 62.9344C6.3256 62.9511 7.32585 62.9796 7.88919 62.997C8.45284 63.0147 9.2898 63.0435 9.7491 63.0612C10.2087 63.0789 11.0599 63.1147 11.6405 63.1409C12.2215 63.1668 13.2073 63.2165 13.8315 63.2513C14.4556 63.2861 15.3919 63.343 15.912 63.3778C16.4322 63.4126 17.2196 63.4698 17.6616 63.5049C18.1039 63.5397 18.9336 63.6112 19.5058 63.6634C20.0779 63.7156 21.0567 63.8149 21.6809 63.8838C22.3051 63.9531 23.1988 64.06 23.6669 64.1217C24.1351 64.183 24.8516 64.283 25.2589 64.3434C25.6665 64.4038 26.3827 64.5183 26.8508 64.5974C27.319 64.6767 27.9857 64.7966 28.3325 64.8637C28.6792 64.9307 29.275 65.0515 29.6565 65.1322C30.0379 65.2128 30.6693 65.3548 31.0593 65.4481C31.4496 65.5414 32.0665 65.6977 32.4306 65.7957C32.7947 65.8935 33.3763 66.0576 33.7231 66.1601C34.0698 66.2629 34.6798 66.4558 35.0786 66.5886C35.4774 66.7218 36.0804 66.934 36.4184 67.0605C36.7566 67.1867 37.2317 67.3714 37.4744 67.4707C37.7172 67.57 38.1427 67.7513 38.4201 67.8736C38.6976 67.996 39.2366 68.2481 39.6181 68.4344C39.9995 68.6207 40.5527 68.9057 40.8475 69.0679C41.1422 69.2305 41.6104 69.4987 41.8878 69.6641C42.1652 69.8298 42.6333 70.1236 42.9281 70.3172C43.2228 70.5111 43.6698 70.8175 43.9211 70.9984C44.1726 71.1794 44.5698 71.4763 44.8037 71.6585C45.038 71.841 45.3995 72.1332 45.6076 72.3085C45.8157 72.4837 46.1776 72.7977 46.4115 73.0065C46.6457 73.2155 47.1422 73.6922 47.5154 74.0663C47.8884 74.4405 48.4063 74.987 48.6661 75.2805C48.9258 75.5743 49.2849 75.9943 49.4639 76.2135C49.6427 76.433 49.9762 76.8615 50.2047 77.1658C50.433 77.4701 50.8333 78.0394 51.0944 78.4309C51.3551 78.8224 51.7119 79.3848 51.8872 79.6805C52.0625 79.9762 52.3222 80.4317 52.4647 80.6926C52.6072 80.9535 52.8499 81.4194 53.0038 81.7284C53.1579 82.0371 53.3915 82.5279 53.5236 82.8195C53.6554 83.1108 53.8663 83.5982 53.992 83.9028C54.1178 84.207 54.3092 84.6909 54.4176 84.9781C54.5261 85.265 54.6919 85.7204 54.7864 85.9902C54.8807 86.2597 55.0623 86.8147 55.1896 87.2237C55.3173 87.6323 55.514 88.3012 55.6275 88.7102C55.7407 89.1188 55.897 89.7096 55.9752 90.0227C56.0531 90.3358 56.1811 90.8766 56.2592 91.2245C56.3374 91.5724 56.4578 92.1345 56.5269 92.4738C56.5962 92.8129 56.71 93.4037 56.78 93.7864C56.85 94.1691 56.9638 94.8307 57.0328 95.257C57.1019 95.6831 57.2084 96.3804 57.2693 96.8068C57.3301 97.2328 57.4297 97.9802 57.4902 98.4672C57.5508 98.9543 57.6435 99.7513 57.6958 100.238C57.7484 100.725 57.8263 101.501 57.8692 101.962C57.912 102.423 57.983 103.248 58.0265 103.796C58.07 104.344 58.1343 105.22 58.169 105.742C58.2036 106.263 58.2601 107.203 58.2944 107.829C58.3291 108.455 58.3786 109.444 58.4051 110.027C58.4316 110.61 58.4678 111.464 58.4855 111.925C58.5031 112.386 58.5381 113.453 58.5633 114.297C58.5882 115.14 58.6248 116.614 58.644 117.57C58.6636 118.527 58.6888 119.854 58.7216 121.729H58.3906C58.2087 121.73 57.8824 121.715 57.6655 121.698C57.449 121.68 56.9168 121.644 56.4834 121.617C56.0499 121.589 55.3264 121.533 54.8757 121.492C54.4249 121.45 53.7439 121.379 53.3625 121.334C52.9811 121.289 52.3216 121.202 51.8966 121.141C51.472 121.08 50.7555 120.968 50.3047 120.891C49.8539 120.815 49.1872 120.694 48.8231 120.622C48.459 120.55 47.8064 120.413 47.3729 120.317C46.9395 120.221 46.2516 120.058 45.844 119.956C45.4367 119.853 44.8126 119.69 44.457 119.592C44.1017 119.495 43.435 119.302 42.9754 119.163C42.5161 119.024 41.7642 118.784 41.3046 118.63C40.8453 118.476 40.0862 118.209 39.6181 118.035C39.1499 117.862 38.3628 117.557 37.8685 117.357C37.3745 117.157 36.6863 116.868 36.3396 116.717C35.9928 116.564 35.4184 116.305 35.0628 116.139C34.7076 115.974 33.991 115.625 33.4709 115.364C32.9507 115.103 32.2487 114.74 31.9104 114.557C31.5725 114.374 31.0334 114.076 30.7125 113.893C30.3919 113.711 29.9024 113.426 29.625 113.26C29.3475 113.095 28.8227 112.773 28.4586 112.546C28.0945 112.318 27.4419 111.896 27.0085 111.606C26.575 111.316 25.9439 110.883 25.6057 110.643C25.2677 110.403 24.6861 109.978 24.3132 109.698C23.9406 109.419 23.3589 108.97 23.0207 108.702C22.6828 108.433 22.1579 108.007 21.8543 107.754C21.551 107.502 21.0331 107.058 20.7037 106.769C20.3743 106.48 19.8352 105.996 19.5058 105.692C19.1763 105.389 18.4904 104.728 17.9813 104.223C17.4722 103.719 16.783 103.014 16.4501 102.658C16.1169 102.301 15.71 101.86 15.5457 101.677C15.3815 101.495 15.0555 101.125 14.8213 100.855C14.5874 100.585 14.1892 100.116 13.9371 99.8114C13.6846 99.5068 13.2539 98.9733 12.9797 98.6254C12.7057 98.2775 12.259 97.6939 11.987 97.3286C11.7153 96.9633 11.2821 96.3656 11.0249 96.0003C10.7676 95.635 10.3313 94.9945 10.0555 94.577C9.77936 94.1596 9.33771 93.4691 9.07386 93.0431C8.80969 92.6168 8.44432 92.0121 8.26117 91.699C8.07833 91.3858 7.72747 90.7666 7.48158 90.3232C7.23601 89.8794 6.73352 88.9116 6.36532 88.1725C5.99712 87.433 5.5706 86.5506 5.41771 86.2116C5.26482 85.8722 5.01483 85.3029 4.86257 84.9465C4.71 84.5897 4.47956 84.0347 4.34999 83.713C4.22043 83.391 4.02593 82.8929 3.91748 82.606C3.80936 82.3189 3.59373 81.7284 3.43863 81.2935C3.28354 80.8586 3.03576 80.1255 2.88823 79.6647C2.74069 79.2036 2.50048 78.41 2.35452 77.9015C2.20825 77.3926 1.99704 76.6168 1.88482 76.1778C1.77259 75.7385 1.61024 75.073 1.5245 74.6992C1.43844 74.325 1.29721 73.6703 1.21052 73.2443C1.12351 72.818 0.995842 72.1491 0.926804 71.7578C0.857452 71.3663 0.75027 70.7189 0.688799 70.3188C0.627327 69.9187 0.542212 69.3209 0.49934 68.9904C0.456782 68.6599 0.385853 68.0621 0.342035 67.6621C0.297901 67.262 0.233277 66.5858 0.19797 66.1598C0.162348 65.7334 0.113171 65.0218 0.0885823 64.5784Z" fill="white"/>
<path d="M116.883 62.9018C117.82 62.8828 118.763 62.8639 118.98 62.8597C119.196 62.8556 119.753 62.8493 121.06 62.8389L121.045 62.9575C121.036 63.0226 121.015 63.3961 120.997 63.7877C120.979 64.1789 120.943 64.8194 120.916 65.2109C120.89 65.6022 120.834 66.2996 120.791 66.7607C120.748 67.2215 120.677 67.8977 120.634 68.263C120.59 68.6283 120.505 69.2757 120.444 69.702C120.384 70.1281 120.271 70.8469 120.195 71.2992C120.118 71.7515 120.004 72.3847 119.941 72.7066C119.878 73.0283 119.735 73.7114 119.622 74.2248C119.509 74.7378 119.325 75.5205 119.213 75.9643C119.1 76.4077 118.937 77.027 118.849 77.3401C118.762 77.6532 118.605 78.194 118.501 78.5419C118.397 78.8898 118.191 79.5445 118.043 79.9968C117.895 80.4491 117.657 81.1464 117.514 81.5465C117.37 81.9466 117.146 82.5513 117.015 82.8907C116.885 83.2297 116.658 83.799 116.511 84.1558C116.365 84.5122 116.117 85.0958 115.961 85.4525C115.805 85.809 115.552 86.3713 115.4 86.7018C115.247 87.0323 114.893 87.7582 114.613 88.3148C114.332 88.8715 113.964 89.5831 113.795 89.8962C113.625 90.2093 113.337 90.7286 113.154 91.0506C112.971 91.3722 112.642 91.9346 112.423 92.2999C112.204 92.6652 111.863 93.2202 111.665 93.5333C111.467 93.8465 111.09 94.4227 110.829 94.8143C110.568 95.2055 110.157 95.8032 109.916 96.1426C109.676 96.4817 109.266 97.044 109.007 97.3919C108.747 97.7398 108.35 98.2591 108.125 98.5463C107.9 98.8332 107.523 99.3028 107.288 99.59C107.052 99.8769 106.683 100.318 106.467 100.57C106.251 100.823 105.903 101.221 105.694 101.456C105.485 101.691 105.131 102.082 104.906 102.326C104.682 102.569 104.064 103.207 103.534 103.744C103.005 104.28 102.288 104.986 101.941 105.312C101.594 105.637 101.161 106.039 100.979 106.203C100.797 106.368 100.485 106.646 100.286 106.822C100.086 106.997 99.61 107.402 99.227 107.722C98.8443 108.042 98.2769 108.504 97.9661 108.748C97.6556 108.993 97.1178 109.407 96.771 109.667C96.4242 109.928 95.8637 110.339 95.5258 110.581C95.1875 110.822 94.5564 111.256 94.123 111.546C93.6895 111.836 93.1148 112.213 92.8463 112.384C92.5774 112.555 92.0881 112.858 91.7587 113.057C91.4293 113.256 90.9186 113.557 90.6238 113.727C90.3291 113.896 89.8821 114.148 89.6308 114.287C89.3793 114.426 88.8049 114.734 88.3541 114.97C87.9033 115.206 87.1656 115.576 86.7149 115.792C86.2641 116.008 85.5759 116.328 85.1859 116.503C84.7957 116.677 84.2141 116.93 83.8935 117.064C83.5725 117.198 83.1044 117.391 82.8532 117.491C82.6016 117.592 82.0342 117.809 81.5922 117.975C81.1499 118.14 80.4479 118.391 80.0318 118.533C79.6157 118.675 78.9773 118.884 78.6132 118.998C78.2491 119.111 77.6035 119.304 77.1789 119.426C76.7539 119.548 75.9951 119.753 75.4923 119.881C74.9895 120.009 74.2304 120.192 73.8058 120.287C73.3808 120.382 72.7781 120.511 72.466 120.574C72.1539 120.637 71.6218 120.738 71.2839 120.799C70.9456 120.859 70.3571 120.958 69.9756 121.017C69.5942 121.077 69.0195 121.162 68.6989 121.205C68.378 121.248 67.8673 121.313 67.564 121.348C67.2605 121.383 66.7923 121.434 66.5238 121.46C66.2549 121.486 65.7798 121.528 65.4677 121.554C65.1556 121.579 64.6449 121.615 64.3328 121.634C64.0208 121.653 63.5917 121.682 63.3792 121.699C63.1668 121.716 62.8477 121.729 62.3468 121.729L62.368 120.425C62.3796 119.707 62.4048 118.387 62.4244 117.491C62.4436 116.595 62.4802 115.186 62.5054 114.36C62.5306 113.534 62.5659 112.473 62.5836 112.004C62.6015 111.534 62.6375 110.68 62.6636 110.106C62.6898 109.532 62.7393 108.55 62.774 107.924C62.8083 107.298 62.8582 106.458 62.8843 106.058C62.9105 105.658 62.9603 104.953 62.9946 104.492C63.029 104.031 63.0927 103.248 63.1362 102.753C63.1797 102.257 63.2576 101.431 63.3096 100.918C63.3613 100.405 63.4464 99.6223 63.4984 99.1788C63.5507 98.7351 63.6358 98.052 63.6882 97.6607C63.7405 97.2692 63.8332 96.6145 63.8943 96.2059C63.9555 95.7969 64.062 95.128 64.1314 94.7194C64.2008 94.3104 64.3212 93.6415 64.399 93.2329C64.4769 92.8239 64.6191 92.1266 64.7152 91.6831C64.8111 91.2394 64.9873 90.4851 65.1064 90.0069C65.2256 89.5284 65.4289 88.7671 65.5582 88.3148C65.6871 87.8625 65.8952 87.1794 66.02 86.7967C66.1452 86.414 66.3393 85.8447 66.4519 85.5316C66.5644 85.2185 66.77 84.6777 66.9083 84.3297C67.0467 83.9818 67.2671 83.4552 67.3976 83.1595C67.5284 82.8638 67.7658 82.3514 67.9253 82.0209C68.0845 81.6904 68.3572 81.1566 68.5312 80.8349C68.7049 80.5129 68.9864 80.0148 69.1563 79.7279C69.3266 79.4408 69.6235 78.9641 69.8167 78.6684C70.0097 78.3727 70.3151 77.9242 70.4955 77.6722C70.6758 77.4198 70.9718 77.0213 71.1537 76.7866C71.3353 76.5516 71.5837 76.2385 71.7057 76.0908C71.8277 75.9428 72.0641 75.6654 72.2312 75.4741C72.3979 75.2827 72.7472 74.8984 73.007 74.6201C73.267 74.3418 73.7055 73.8987 73.9817 73.6352C74.2575 73.3721 74.6607 72.9995 74.8776 72.8072C75.0942 72.6149 75.4561 72.3059 75.6815 72.1203C75.9069 71.9346 76.3394 71.5956 76.6429 71.3669C76.9462 71.1382 77.5136 70.7369 77.9039 70.475C78.2939 70.2128 78.8402 69.8627 79.1176 69.6967C79.395 69.5306 79.8455 69.2719 80.1185 69.1214C80.3915 68.9711 80.8668 68.7216 81.1745 68.5672C81.4822 68.4126 81.968 68.1792 82.2542 68.0482C82.5401 67.9173 82.9941 67.718 83.263 67.6058C83.5316 67.4938 83.9928 67.3088 84.2875 67.1952C84.5823 67.0817 85.0857 66.8964 85.4066 66.7834C85.7272 66.6702 86.2877 66.4846 86.6518 66.3704C87.0159 66.2562 87.6401 66.0706 88.0389 65.9577C88.4376 65.8451 89.0476 65.6815 89.3944 65.5943C89.7411 65.5073 90.3086 65.3719 90.6553 65.2935C91.0021 65.215 91.5623 65.0939 91.9005 65.0246C92.2385 64.9554 92.8273 64.8412 93.2088 64.771C93.5902 64.7008 94.2497 64.5866 94.6747 64.5173C95.0993 64.4484 95.7944 64.3415 96.2193 64.2798C96.644 64.2181 97.3889 64.1185 97.8743 64.0578C98.3598 63.9974 99.147 63.905 99.6239 63.8528C100.101 63.8003 100.959 63.7146 101.531 63.6621C102.103 63.61 102.933 63.5388 103.375 63.5043C103.817 63.4702 104.605 63.4132 105.125 63.3781C105.645 63.343 106.581 63.2861 107.205 63.2513C107.83 63.2168 108.645 63.1738 109.018 63.1561C109.391 63.1384 110.235 63.1023 110.894 63.0764C111.553 63.0505 112.787 63.0084 113.636 62.9828C114.486 62.9572 115.947 62.9205 116.883 62.9018Z" fill="white"/>
<path d="M58.6937 1.76612C58.7042 0.99188 58.7186 0.34067 58.7256 0.318847C58.7357 0.287535 59.1152 0.280894 62.3489 0.295442L62.3701 1.52891C62.3817 2.20732 62.407 3.53093 62.4262 4.47027C62.4451 5.40961 62.475 6.66206 62.4921 7.25349C62.5094 7.84492 62.5447 8.91963 62.5706 9.64137C62.5964 10.3634 62.639 11.4236 62.6651 11.9976C62.6913 12.5717 62.7411 13.5537 62.7755 14.1799C62.8101 14.8061 62.8669 15.7455 62.9019 16.2673C62.9366 16.7892 63.0006 17.6643 63.0441 18.2124C63.0879 18.7605 63.1588 19.593 63.202 20.0626C63.2452 20.5323 63.3445 21.4931 63.423 22.1975C63.5011 22.9018 63.6219 23.8981 63.6909 24.4114C63.76 24.9247 63.8741 25.7145 63.9441 26.1667C64.0144 26.619 64.1282 27.3094 64.1969 27.7007C64.2659 28.0922 64.3791 28.7042 64.4488 29.0606C64.5184 29.4171 64.6534 30.0648 64.7486 30.4997C64.8438 30.9346 65.0146 31.6604 65.1281 32.1127C65.2416 32.565 65.4254 33.2516 65.5363 33.6387C65.647 34.0258 65.8387 34.659 65.9616 35.0461C66.0849 35.4333 66.2775 36.006 66.39 36.3191C66.5025 36.6323 66.7122 37.1873 66.8556 37.5526C66.9994 37.9179 67.2421 38.5014 67.3953 38.8493C67.5485 39.1973 67.825 39.7877 68.0094 40.1619C68.1941 40.536 68.4618 41.0554 68.6046 41.3163C68.7474 41.5772 69.0078 42.0327 69.1833 42.3284C69.3586 42.6241 69.7155 43.1864 69.9765 43.5777C70.2372 43.9692 70.6208 44.517 70.8289 44.795C71.0369 45.0733 71.3755 45.5073 71.5811 45.7596C71.7866 46.012 72.1624 46.4532 72.4158 46.7404C72.6696 47.0276 73.1752 47.5615 73.5396 47.9268C73.9037 48.2924 74.4415 48.8047 74.7344 49.0653C75.0273 49.3263 75.4456 49.6868 75.6644 49.8671C75.8828 50.0474 76.3172 50.3871 76.6293 50.6217C76.9414 50.8564 77.4874 51.2442 77.843 51.4836C78.1986 51.7227 78.7376 52.0681 79.0409 52.2509C79.3445 52.4337 79.7735 52.6848 79.9945 52.8088C80.2155 52.9328 80.7403 53.2073 81.1609 53.4186C81.5814 53.6298 82.1949 53.923 82.5243 54.0701C82.8537 54.2171 83.4 54.4483 83.738 54.584C84.0759 54.7197 84.6648 54.9439 85.0462 55.0828C85.4276 55.2216 86.0093 55.4212 86.3387 55.5268C86.6681 55.6322 87.1574 55.7843 87.4263 55.8649C87.6952 55.9453 88.2553 56.1015 88.6715 56.2122C89.0876 56.3229 89.7612 56.4918 90.1688 56.5879C90.5764 56.6838 91.2148 56.8264 91.5874 56.9045C91.96 56.983 92.4922 57.0899 92.7696 57.1427C93.047 57.1952 93.6002 57.2951 93.999 57.3644C94.3978 57.434 95.0503 57.5406 95.4491 57.6016C95.8479 57.6623 96.4364 57.7484 96.7573 57.792C97.0783 57.836 97.6243 57.9071 97.971 57.9505C98.3178 57.9938 98.9208 58.0646 99.3108 58.1083C99.7011 58.1516 100.46 58.2297 100.997 58.2816C101.535 58.3335 102.322 58.4049 102.747 58.4407C103.172 58.4761 103.91 58.5333 104.386 58.5675C104.863 58.602 105.487 58.645 105.773 58.6627C106.059 58.6807 106.804 58.7237 107.428 58.7582C108.052 58.7927 108.868 58.8354 109.241 58.8528C109.613 58.8705 110.458 58.9062 111.117 58.9322C111.775 58.9581 113.01 59.0005 113.859 59.0261C114.709 59.0517 116.163 59.0887 117.09 59.108C118.018 59.1273 119.288 59.1526 121.047 59.1858L121.063 62.823L119.605 62.8473C118.803 62.8609 117.515 62.8856 116.744 62.9027C115.972 62.9194 114.823 62.9479 114.19 62.9656C113.557 62.9837 112.451 63.0197 111.731 63.0456C111.012 63.0719 109.955 63.1143 109.383 63.1405C108.811 63.1665 107.832 63.2164 107.208 63.2512C106.583 63.286 105.647 63.3429 105.127 63.378C104.607 63.4132 103.82 63.4701 103.377 63.5046C102.935 63.539 102.105 63.6099 101.533 63.6624C100.961 63.7146 100.103 63.8003 99.626 63.8528C99.1494 63.9053 98.3619 63.9976 97.8764 64.058C97.391 64.1184 96.6461 64.2184 96.2214 64.2797C95.7968 64.3414 95.1014 64.4483 94.6768 64.5176C94.2521 64.5865 93.5923 64.7007 93.2109 64.7709C92.8295 64.8415 92.2406 64.9556 91.9027 65.0249C91.5647 65.0942 91.0042 65.215 90.6575 65.2934C90.3107 65.3718 89.7433 65.5075 89.3965 65.5945C89.0497 65.6815 88.4398 65.845 88.041 65.9579C87.6422 66.0705 87.018 66.2561 86.6539 66.3703C86.2898 66.4845 85.7296 66.6705 85.4087 66.7834C85.0878 66.8963 84.5844 67.0816 84.2896 67.1955C83.9949 67.309 83.534 67.4937 83.2651 67.606C82.9962 67.7183 82.5423 67.9172 82.2563 68.0482C81.9704 68.1791 81.4843 68.4128 81.1766 68.5672C80.869 68.7215 80.3936 68.9711 80.1206 69.1216C79.8476 69.2718 79.3971 69.5309 79.1197 69.6966C78.8423 69.8626 78.296 70.2131 77.906 70.4749C77.5158 70.7368 76.9483 71.1382 76.6451 71.3668C76.3415 71.5955 75.909 71.9345 75.6836 72.1202C75.4582 72.3059 75.0966 72.6152 74.8797 72.8072C74.6632 72.9994 74.2597 73.372 73.9838 73.6355C73.7077 73.8986 73.2692 74.3417 73.0091 74.62C72.7493 74.8984 72.4 75.2826 72.2333 75.474C72.0662 75.6653 71.8298 75.9427 71.7078 76.0907C71.5858 76.2387 71.3374 76.5515 71.1558 76.7865C70.9739 77.0215 70.6779 77.42 70.4976 77.6721C70.3173 77.9242 70.0118 78.3726 69.8189 78.6684C69.6256 78.9641 69.3287 79.441 69.1584 79.7279C68.9885 80.0147 68.707 80.5129 68.5333 80.8348C68.3593 81.1568 68.0866 81.6904 67.9274 82.0209C67.7679 82.3514 67.5305 82.8637 67.3997 83.1595C67.2692 83.4552 67.0489 83.9818 66.9105 84.3297C66.7721 84.6776 66.5665 85.2184 66.454 85.5315C66.3415 85.8446 66.1473 86.4139 66.0221 86.7966C65.8973 87.1793 65.6892 87.8625 65.5603 88.3147C65.431 88.767 65.2277 89.5286 65.1086 90.0068C64.9894 90.4853 64.8132 91.2393 64.7173 91.6831C64.6212 92.1268 64.479 92.8239 64.4012 93.2328C64.3233 93.6418 64.2029 94.3104 64.1335 94.7193C64.0642 95.1283 63.9576 95.7969 63.8965 96.2058C63.8353 96.6147 63.7426 97.2694 63.6903 97.6607C63.638 98.0522 63.5528 98.7351 63.5005 99.1788C63.4485 99.6225 63.3634 100.405 63.3117 100.918C63.2597 101.431 63.1818 102.257 63.1383 102.753C63.0951 103.249 63.0311 104.031 62.9968 104.492C62.9624 104.953 62.9126 105.658 62.8864 106.058C62.8603 106.458 62.8105 107.298 62.7761 107.924C62.7414 108.55 62.6919 109.532 62.6658 110.106C62.6396 110.68 62.6037 111.534 62.5857 112.004C62.568 112.473 62.5327 113.534 62.5075 114.36C62.4823 115.186 62.4457 116.595 62.4262 117.491C62.4066 118.387 62.3814 119.703 62.3489 121.713H58.7237L58.7026 120.512C58.6909 119.851 58.6657 118.527 58.6461 117.57C58.6269 116.613 58.5903 115.141 58.5654 114.297C58.5402 113.453 58.5052 112.385 58.4876 111.925C58.4696 111.464 58.4337 110.61 58.4072 110.027C58.3807 109.444 58.3309 108.455 58.2965 107.829C58.2622 107.203 58.2058 106.263 58.1708 105.741C58.1361 105.22 58.0721 104.344 58.0286 103.796C57.9851 103.249 57.9142 102.423 57.8713 101.962C57.8284 101.501 57.7502 100.725 57.6979 100.238C57.6453 99.7512 57.5529 98.9542 57.4924 98.4672C57.4318 97.9801 57.3322 97.2327 57.2714 96.8067C57.2102 96.3807 57.104 95.683 57.035 95.257C56.9659 94.831 56.8521 94.169 56.7821 93.7863C56.7118 93.4036 56.598 92.8128 56.529 92.4738C56.46 92.1347 56.3395 91.5724 56.2614 91.2245C56.1832 90.8766 56.0552 90.3357 55.9773 90.0226C55.8991 89.7095 55.7428 89.119 55.6293 88.7101C55.5161 88.3011 55.3194 87.6325 55.1917 87.2236C55.0644 86.8147 54.8828 86.2599 54.7886 85.9901C54.694 85.7203 54.5282 85.2649 54.4197 84.978C54.3113 84.6912 54.1199 84.2073 53.9942 83.9027C53.8681 83.5984 53.6575 83.1108 53.5257 82.8195C53.3936 82.5282 53.1597 82.037 53.0059 81.7283C52.8517 81.4196 52.6093 80.9534 52.4668 80.6925C52.3243 80.4316 52.0643 79.9762 51.889 79.6804C51.7137 79.3847 51.3572 78.8224 51.0962 78.4308C50.8355 78.0393 50.4351 77.47 50.2066 77.1657C49.9783 76.8615 49.6448 76.4329 49.4657 76.2137C49.287 75.9942 48.9279 75.5746 48.6682 75.2807C48.4084 74.9869 47.8905 74.4404 47.5176 74.0666C47.1443 73.6924 46.6478 73.2155 46.4136 73.0067C46.1797 72.7977 45.8178 72.4836 45.6097 72.3084C45.4017 72.1332 45.0401 71.8409 44.8059 71.6588C44.572 71.4763 44.1744 71.1793 43.9232 70.9984C43.672 70.8175 43.2249 70.511 42.9302 70.3174C42.6354 70.1236 42.1673 69.8297 41.8899 69.664C41.6125 69.4986 41.1444 69.2304 40.8496 69.0682C40.5549 68.9059 40.0016 68.6206 39.6202 68.4343C39.2387 68.2484 38.6997 67.996 38.4223 67.8736C38.1449 67.7515 37.7193 67.5703 37.4765 67.471C37.2338 67.3717 36.7584 67.187 36.4205 67.0604C36.0826 66.9342 35.4795 66.722 35.0807 66.5889C34.6819 66.4557 34.072 66.2628 33.7252 66.1603C33.3784 66.0575 32.7968 65.8934 32.4327 65.7957C32.0686 65.6979 31.4517 65.5414 31.0614 65.4484C30.6715 65.3551 30.04 65.2128 29.6586 65.1321C29.2772 65.0515 28.6814 64.9306 28.3346 64.8636C27.9878 64.7969 27.3211 64.677 26.853 64.5976C26.3848 64.5182 25.6686 64.4037 25.261 64.3433C24.8537 64.2829 24.1372 64.1833 23.6691 64.1216C23.2009 64.0603 22.3072 63.953 21.683 63.8841C21.0589 63.8148 20.0801 63.7155 19.5079 63.6633C18.9357 63.6111 18.106 63.54 17.6637 63.5049C17.2218 63.4698 16.4343 63.4128 15.9142 63.378C15.394 63.3433 14.4578 63.2863 13.8336 63.2519C13.2094 63.2174 12.3866 63.1744 12.0052 63.156C11.6237 63.138 10.7799 63.1023 10.1295 63.0766C9.47949 63.0513 8.4723 63.0156 7.89131 62.9976C7.31064 62.9792 6.32457 62.9511 5.7004 62.9343C5.07622 62.9179 3.55834 62.8885 2.32733 62.8688C1.09632 62.8492 0.0714793 62.8271 0.0497278 62.8201C0.0188343 62.81 0.011899 62.4226 0.0260848 59.1858L1.25552 59.1646C1.93171 59.1526 3.24405 59.1276 4.17148 59.1083C5.09924 59.089 6.34033 59.0596 6.92983 59.0426C7.51933 59.0258 8.42028 58.9973 8.9316 58.9796C9.44324 58.9622 10.202 58.9334 10.6181 58.916C11.0343 58.8986 11.8217 58.8629 12.3677 58.8363C12.914 58.8101 13.8503 58.7601 14.4483 58.7253C15.0466 58.6905 16.0254 58.627 16.6234 58.5836C17.2218 58.5406 18.0515 58.4767 18.4676 58.4416C18.8837 58.4065 19.593 58.3423 20.0438 58.299C20.4946 58.256 21.3741 58.163 21.9983 58.0928C22.6225 58.0226 23.5518 57.9084 24.0631 57.8391C24.5747 57.7699 25.2698 57.6702 25.6078 57.6184C25.946 57.5665 26.5986 57.4593 27.0579 57.3805C27.5175 57.3018 28.2905 57.1588 28.7759 57.0627C29.2614 56.9665 29.9707 56.8169 30.3521 56.7306C30.7336 56.6439 31.301 56.5089 31.6131 56.4301C31.9252 56.3517 32.4359 56.2179 32.748 56.1328C33.06 56.0481 33.578 55.8988 33.8986 55.8011C34.2195 55.7033 34.7015 55.5515 34.9704 55.4633C35.2393 55.3753 35.7427 55.1998 36.0895 55.0736C36.4363 54.9474 37.0179 54.7238 37.382 54.5761C37.7461 54.4287 38.2637 54.2105 38.5326 54.091C38.8015 53.9717 39.3547 53.7086 39.762 53.5065C40.1696 53.3044 40.7654 52.9922 41.086 52.8129C41.407 52.6332 41.8678 52.3654 42.1106 52.2173C42.3533 52.0693 42.8072 51.7774 43.1193 51.5687C43.4314 51.3599 43.8642 51.0598 44.0808 50.9023C44.2977 50.7444 44.6382 50.4879 44.8374 50.332C45.0369 50.1764 45.3701 49.906 45.5782 49.7311C45.7863 49.5565 46.0984 49.2871 46.2717 49.1324C46.4451 48.9777 46.8057 48.6431 47.0734 48.3888C47.3407 48.1345 47.7931 47.6775 48.0784 47.373C48.3637 47.0687 48.7565 46.6345 48.9516 46.4083C49.1464 46.1822 49.4888 45.7679 49.7119 45.4876C49.9351 45.2071 50.2661 44.7732 50.4477 44.523C50.6293 44.2725 50.9433 43.819 51.145 43.5144C51.3468 43.2101 51.6611 42.712 51.8433 42.4074C52.0258 42.1032 52.2919 41.6405 52.4347 41.3795C52.5775 41.1186 52.847 40.5993 53.0336 40.2251C53.2199 39.851 53.5074 39.2393 53.672 38.8652C53.8365 38.491 54.078 37.9148 54.2088 37.5842C54.3393 37.2537 54.5383 36.7271 54.6505 36.414C54.763 36.1009 54.95 35.5531 55.066 35.1964C55.1823 34.8396 55.3825 34.1814 55.5111 33.7336C55.6394 33.2858 55.8361 32.5526 55.948 32.1048C56.0596 31.6569 56.2008 31.0696 56.2614 30.8002C56.3216 30.5307 56.4284 30.0326 56.4984 29.6932C56.5687 29.3538 56.6753 28.813 56.7352 28.4913C56.7954 28.1697 56.9085 27.522 56.987 27.0523C57.0652 26.5826 57.1787 25.8568 57.2392 25.4393C57.2998 25.0218 57.3852 24.4029 57.4293 24.0635C57.4735 23.7241 57.5447 23.1479 57.5873 22.7826C57.6301 22.4173 57.708 21.6987 57.7603 21.1854C57.8126 20.6721 57.8908 19.8466 57.934 19.351C57.9775 18.8554 58.0412 18.0726 58.0759 17.6115C58.1106 17.1504 58.1607 16.446 58.1872 16.0459C58.2136 15.6458 58.2631 14.8061 58.2975 14.1799C58.3319 13.5537 58.3813 12.5717 58.4075 11.9976C58.4337 11.4236 58.4762 10.3631 58.5021 9.64137C58.5276 8.91963 58.5636 7.80918 58.5812 7.17442C58.5992 6.53966 58.6275 5.37956 58.6443 4.59678C58.661 3.814 58.683 2.54036 58.6937 1.76612Z" fill="#981B2F"/>
<path d="M61.1949 2.4375C93.4232 2.43773 119.562 28.6494 119.562 61C119.562 93.3506 93.4232 119.562 61.1949 119.562C28.9665 119.562 2.82678 93.3507 2.82678 61C2.82678 28.6493 28.9665 2.4375 61.1949 2.4375Z" stroke="#981B2F" stroke-width="4.87439"/>
</svg>
